Groote-Romyn-04.ufo
<glyph name="ampersand" format="2">
  <advance width="871"/>
  <unicode hex="0026"/>
  <outline>
    <contour>
      <point x="245" y="-15" type="curve" smooth="yes"/>
      <point x="317" y="-15"/>
      <point x="401" y="31"/>
      <point x="447" y="95" type="curve" smooth="yes"/>
      <point x="499" y="167" type="line"/>
      <point x="485" y="199" type="line"/>
      <point x="415" y="113" type="line" smooth="yes"/>
      <point x="384" y="75"/>
      <point x="331" y="53"/>
      <point x="284" y="53" type="curve" smooth="yes"/>
      <point x="216" y="53"/>
      <point x="153" y="128"/>
      <point x="153" y="215" type="curve" smooth="yes"/>
      <point x="153" y="347"/>
      <point x="443" y="406"/>
      <point x="443" y="542" type="curve" smooth="yes"/>
      <point x="443" y="615"/>
      <point x="387" y="666"/>
      <point x="309" y="666" type="curve" smooth="yes"/>
      <point x="208" y="666"/>
      <point x="137" y="612"/>
      <point x="137" y="536" type="curve" smooth="yes"/>
      <point x="137" y="496"/>
      <point x="150" y="456"/>
      <point x="184" y="424" type="curve" smooth="yes"/>
      <point x="221" y="390"/>
      <point x="396" y="235"/>
      <point x="413" y="218" type="curve" smooth="yes"/>
      <point x="446" y="185"/>
      <point x="480" y="124"/>
      <point x="505" y="72" type="curve" smooth="yes"/>
      <point x="528" y="24"/>
      <point x="590" y="-10"/>
      <point x="641" y="-10" type="curve" smooth="yes"/>
      <point x="691" y="-10"/>
      <point x="761" y="23"/>
      <point x="811" y="70" type="curve"/>
      <point x="789" y="98" type="line"/>
      <point x="757" y="73"/>
      <point x="719" y="49"/>
      <point x="687" y="49" type="curve" smooth="yes"/>
      <point x="653" y="49"/>
      <point x="611" y="76"/>
      <point x="589" y="115" type="curve" smooth="yes"/>
      <point x="548" y="188"/>
      <point x="507" y="254"/>
      <point x="455" y="302" type="curve" smooth="yes"/>
      <point x="374" y="377"/>
      <point x="311" y="421"/>
      <point x="271" y="459" type="curve" smooth="yes"/>
      <point x="237" y="489"/>
      <point x="208" y="527"/>
      <point x="208" y="556" type="curve" smooth="yes"/>
      <point x="208" y="600"/>
      <point x="244" y="622"/>
      <point x="289" y="622" type="curve" smooth="yes"/>
      <point x="339" y="622"/>
      <point x="374" y="596"/>
      <point x="374" y="535" type="curve" smooth="yes"/>
      <point x="374" y="420"/>
      <point x="59" y="348"/>
      <point x="59" y="176" type="curve" smooth="yes"/>
      <point x="59" y="64"/>
      <point x="128" y="-15"/>
    </contour>
    <contour>
      <point x="499" y="159" type="line"/>
      <point x="660" y="364" type="line" smooth="yes"/>
      <point x="677" y="388"/>
      <point x="701" y="388"/>
      <point x="743" y="388" type="curve" smooth="yes"/>
      <point x="791" y="388" type="line"/>
      <point x="791" y="433" type="line"/>
      <point x="544" y="433" type="line"/>
      <point x="544" y="388" type="line"/>
      <point x="550" y="388"/>
      <point x="565" y="388"/>
      <point x="593" y="388" type="curve" smooth="yes"/>
      <point x="604" y="388"/>
      <point x="611" y="389"/>
      <point x="611" y="380" type="curve" smooth="yes"/>
      <point x="611" y="370"/>
      <point x="601" y="358"/>
      <point x="586" y="338" type="curve" smooth="yes"/>
      <point x="485" y="191" type="line"/>
    </contour>
  </outline>
</glyph>
<glyph name="asterisk" format="2">
  <advance width="779"/>
  <unicode hex="002A"/>
  <outline>
    <contour>
      <point x="379" y="330" type="curve"/>
      <point x="398" y="330" type="line"/>
      <point x="398" y="349"/>
      <point x="451" y="462"/>
      <point x="451" y="504" type="curve" smooth="yes"/>
      <point x="451" y="548"/>
      <point x="423" y="579"/>
      <point x="382" y="579" type="curve" smooth="yes"/>
      <point x="342" y="579"/>
      <point x="313" y="549"/>
      <point x="313" y="507" type="curve" smooth="yes"/>
      <point x="313" y="473"/>
      <point x="379" y="351"/>
    </contour>
    <contour>
      <point x="393" y="366" type="curve" smooth="yes"/>
      <point x="393" y="363"/>
      <point x="387" y="366"/>
      <point x="383" y="366" type="curve"/>
      <point x="383" y="390"/>
      <point x="341" y="479"/>
      <point x="341" y="503" type="curve" smooth="yes"/>
      <point x="341" y="541"/>
      <point x="364" y="552"/>
      <point x="380" y="552" type="curve" smooth="yes"/>
      <point x="400" y="552"/>
      <point x="424" y="541"/>
      <point x="424" y="504" type="curve" smooth="yes"/>
      <point x="424" y="468"/>
      <point x="393" y="390"/>
    </contour>
    <contour>
      <point x="442" y="313" type="curve"/>
      <point x="455" y="300" type="line"/>
      <point x="469" y="314"/>
      <point x="586" y="356"/>
      <point x="616" y="386" type="curve" smooth="yes"/>
      <point x="647" y="417"/>
      <point x="649" y="459"/>
      <point x="620" y="488" type="curve" smooth="yes"/>
      <point x="592" y="516"/>
      <point x="550" y="515"/>
      <point x="520" y="485" type="curve" smooth="yes"/>
      <point x="497" y="462"/>
      <point x="457" y="329"/>
    </contour>
    <contour>
      <point x="478" y="329" type="curve" smooth="yes"/>
      <point x="476" y="327"/>
      <point x="473" y="334"/>
      <point x="471" y="336" type="curve"/>
      <point x="487" y="353"/>
      <point x="520" y="446"/>
      <point x="538" y="463" type="curve" smooth="yes"/>
      <point x="564" y="489"/>
      <point x="588" y="481"/>
      <point x="599" y="470" type="curve" smooth="yes"/>
      <point x="614" y="456"/>
      <point x="623" y="431"/>
      <point x="597" y="405" type="curve" smooth="yes"/>
      <point x="571" y="380"/>
      <point x="494" y="346"/>
    </contour>
    <contour>
      <point x="472" y="254" type="curve"/>
      <point x="472" y="235" type="line"/>
      <point x="491" y="235"/>
      <point x="604" y="182"/>
      <point x="646" y="182" type="curve" smooth="yes"/>
      <point x="690" y="182"/>
      <point x="721" y="210"/>
      <point x="721" y="251" type="curve" smooth="yes"/>
      <point x="721" y="291"/>
      <point x="691" y="320"/>
      <point x="649" y="320" type="curve" smooth="yes"/>
      <point x="615" y="320"/>
      <point x="493" y="254"/>
    </contour>
    <contour>
      <point x="508" y="240" type="curve" smooth="yes"/>
      <point x="505" y="240"/>
      <point x="508" y="246"/>
      <point x="508" y="250" type="curve"/>
      <point x="532" y="250"/>
      <point x="621" y="292"/>
      <point x="645" y="292" type="curve" smooth="yes"/>
      <point x="683" y="292"/>
      <point x="694" y="269"/>
      <point x="694" y="253" type="curve" smooth="yes"/>
      <point x="694" y="233"/>
      <point x="683" y="209"/>
      <point x="646" y="209" type="curve" smooth="yes"/>
      <point x="610" y="209"/>
      <point x="532" y="240"/>
    </contour>
    <contour>
      <point x="455" y="194" type="curve"/>
      <point x="442" y="181" type="line"/>
      <point x="456" y="167"/>
      <point x="498" y="49"/>
      <point x="528" y="19" type="curve" smooth="yes"/>
      <point x="559" y="-12"/>
      <point x="601" y="-14"/>
      <point x="630" y="15" type="curve" smooth="yes"/>
      <point x="658" y="44"/>
      <point x="657" y="85"/>
      <point x="627" y="115" type="curve" smooth="yes"/>
      <point x="604" y="139"/>
      <point x="471" y="178"/>
    </contour>
    <contour>
      <point x="471" y="158" type="curve" smooth="yes"/>
      <point x="469" y="160"/>
      <point x="476" y="162"/>
      <point x="478" y="165" type="curve"/>
      <point x="495" y="148"/>
      <point x="588" y="115"/>
      <point x="605" y="98" type="curve" smooth="yes"/>
      <point x="631" y="71"/>
      <point x="623" y="47"/>
      <point x="612" y="36" type="curve" smooth="yes"/>
      <point x="598" y="22"/>
      <point x="573" y="13"/>
      <point x="547" y="39" type="curve" smooth="yes"/>
      <point x="522" y="64"/>
      <point x="488" y="141"/>
    </contour>
    <contour>
      <point x="399" y="163" type="curve"/>
      <point x="381" y="163" type="line"/>
      <point x="381" y="143"/>
      <point x="327" y="31"/>
      <point x="327" y="-12" type="curve" smooth="yes"/>
      <point x="327" y="-56"/>
      <point x="356" y="-87"/>
      <point x="396" y="-87" type="curve" smooth="yes"/>
      <point x="437" y="-87"/>
      <point x="465" y="-57"/>
      <point x="465" y="-14" type="curve" smooth="yes"/>
      <point x="465" y="19"/>
      <point x="399" y="141"/>
    </contour>
    <contour>
      <point x="385" y="126" type="curve" smooth="yes"/>
      <point x="385" y="129"/>
      <point x="392" y="126"/>
      <point x="395" y="126" type="curve"/>
      <point x="395" y="103"/>
      <point x="437" y="14"/>
      <point x="437" y="-11" type="curve" smooth="yes"/>
      <point x="437" y="-48"/>
      <point x="414" y="-59"/>
      <point x="399" y="-59" type="curve" smooth="yes"/>
      <point x="378" y="-59"/>
      <point x="355" y="-49"/>
      <point x="355" y="-12" type="curve" smooth="yes"/>
      <point x="355" y="24"/>
      <point x="385" y="103"/>
    </contour>
    <contour>
      <point x="337" y="179" type="curve"/>
      <point x="324" y="192" type="line"/>
      <point x="310" y="178"/>
      <point x="192" y="137"/>
      <point x="162" y="107" type="curve" smooth="yes"/>
      <point x="131" y="75"/>
      <point x="129" y="33"/>
      <point x="158" y="5" type="curve" smooth="yes"/>
      <point x="187" y="-24"/>
      <point x="228" y="-23"/>
      <point x="258" y="7" type="curve" smooth="yes"/>
      <point x="282" y="31"/>
      <point x="321" y="164"/>
    </contour>
    <contour>
      <point x="301" y="163" type="curve" smooth="yes"/>
      <point x="303" y="165"/>
      <point x="305" y="159"/>
      <point x="308" y="156" type="curve"/>
      <point x="291" y="139"/>
      <point x="258" y="47"/>
      <point x="241" y="30" type="curve" smooth="yes"/>
      <point x="214" y="3"/>
      <point x="190" y="12"/>
      <point x="179" y="22" type="curve" smooth="yes"/>
      <point x="165" y="37"/>
      <point x="156" y="61"/>
      <point x="182" y="87" type="curve" smooth="yes"/>
      <point x="207" y="113"/>
      <point x="284" y="147"/>
    </contour>
    <contour>
      <point x="307" y="239" type="curve"/>
      <point x="307" y="257" type="line"/>
      <point x="287" y="257"/>
      <point x="175" y="311"/>
      <point x="132" y="311" type="curve" smooth="yes"/>
      <point x="88" y="311"/>
      <point x="57" y="282"/>
      <point x="57" y="242" type="curve" smooth="yes"/>
      <point x="57" y="201"/>
      <point x="87" y="173"/>
      <point x="130" y="173" type="curve" smooth="yes"/>
      <point x="163" y="173"/>
      <point x="285" y="239"/>
    </contour>
    <contour>
      <point x="270" y="253" type="curve" smooth="yes"/>
      <point x="273" y="253"/>
      <point x="270" y="246"/>
      <point x="270" y="243" type="curve"/>
      <point x="247" y="243"/>
      <point x="158" y="201"/>
      <point x="133" y="201" type="curve" smooth="yes"/>
      <point x="96" y="201"/>
      <point x="85" y="224"/>
      <point x="85" y="239" type="curve" smooth="yes"/>
      <point x="85" y="260"/>
      <point x="95" y="283"/>
      <point x="132" y="283" type="curve" smooth="yes"/>
      <point x="168" y="283"/>
      <point x="247" y="253"/>
    </contour>
    <contour>
      <point x="323" y="299" type="curve"/>
      <point x="336" y="312" type="line"/>
      <point x="322" y="326"/>
      <point x="281" y="443"/>
      <point x="251" y="473" type="curve" smooth="yes"/>
      <point x="219" y="504"/>
      <point x="177" y="506"/>
      <point x="149" y="477" type="curve" smooth="yes"/>
      <point x="120" y="449"/>
      <point x="121" y="407"/>
      <point x="151" y="377" type="curve" smooth="yes"/>
      <point x="175" y="354"/>
      <point x="308" y="314"/>
    </contour>
    <contour>
      <point x="307" y="335" type="curve" smooth="yes"/>
      <point x="309" y="333"/>
      <point x="303" y="330"/>
      <point x="300" y="328" type="curve"/>
      <point x="283" y="344"/>
      <point x="191" y="377"/>
      <point x="174" y="395" type="curve" smooth="yes"/>
      <point x="147" y="421"/>
      <point x="156" y="445"/>
      <point x="166" y="456" type="curve" smooth="yes"/>
      <point x="181" y="471"/>
      <point x="205" y="480"/>
      <point x="231" y="454" type="curve" smooth="yes"/>
      <point x="257" y="428"/>
      <point x="291" y="351"/>
    </contour>
  </outline>
</glyph>
<glyph name="comma" format="2">
  <advance width="310"/>
  <unicode hex="002C"/>
  <outline>
    <contour>
      <point x="72" y="-152" type="curve"/>
      <point x="84" y="-186" type="line"/>
      <point x="176" y="-148"/>
      <point x="241" y="-59"/>
      <point x="241" y="28" type="curve" smooth="yes"/>
      <point x="241" y="85"/>
      <point x="198" y="131"/>
      <point x="136" y="131" type="curve" smooth="yes"/>
      <point x="93" y="131"/>
      <point x="60" y="100"/>
      <point x="60" y="65" type="curve" smooth="yes"/>
      <point x="60" y="38"/>
      <point x="78" y="12"/>
      <point x="102" y="12" type="curve" smooth="yes"/>
      <point x="125" y="12"/>
      <point x="128" y="21"/>
      <point x="147" y="21" type="curve" smooth="yes"/>
      <point x="164" y="21"/>
      <point x="174" y="2"/>
      <point x="174" y="-27" type="curve" smooth="yes"/>
      <point x="174" y="-87"/>
      <point x="131" y="-136"/>
    </contour>
  </outline>
</glyph>
<glyph name="hyphen" format="2">
  <advance width="371"/>
  <unicode hex="002D"/>
  <outline>
    <contour>
      <point x="41" y="218" type="line"/>
      <point x="44" y="156" type="line"/>
      <point x="326" y="163" type="line"/>
      <point x="329" y="258" type="line"/>
      <point x="274" y="258" type="line"/>
      <point x="88" y="230" type="line"/>
    </contour>
  </outline>
</glyph>
<glyph name="period" format="2">
  <advance width="276"/>
  <unicode hex="002E"/>
  <outline>
    <contour>
      <point x="138" y="-5" type="curve" smooth="yes"/>
      <point x="176" y="-5"/>
      <point x="206" y="25"/>
      <point x="206" y="63" type="curve" smooth="yes"/>
      <point x="206" y="101"/>
      <point x="176" y="132"/>
      <point x="138" y="132" type="curve" smooth="yes"/>
      <point x="100" y="132"/>
      <point x="69" y="101"/>
      <point x="69" y="63" type="curve" smooth="yes"/>
      <point x="69" y="25"/>
      <point x="100" y="-5"/>
    </contour>
  </outline>
</glyph>
<glyph name="colon" format="2">
  <advance width="306"/>
  <unicode hex="003A"/>
  <outline>
    <contour>
      <point x="165" y="229" type="curve" smooth="yes"/>
      <point x="204" y="229"/>
      <point x="237" y="252"/>
      <point x="237" y="281" type="curve" smooth="yes"/>
      <point x="237" y="309"/>
      <point x="204" y="334"/>
      <point x="165" y="334" type="curve" smooth="yes"/>
      <point x="124" y="334"/>
      <point x="93" y="309"/>
      <point x="93" y="281" type="curve" smooth="yes"/>
      <point x="93" y="252"/>
      <point x="124" y="229"/>
    </contour>
    <contour>
      <point x="141" y="-19" type="curve" smooth="yes"/>
      <point x="183" y="-19"/>
      <point x="213" y="5"/>
      <point x="213" y="33" type="curve" smooth="yes"/>
      <point x="213" y="62"/>
      <point x="183" y="85"/>
      <point x="141" y="85" type="curve" smooth="yes"/>
      <point x="102" y="85"/>
      <point x="69" y="62"/>
      <point x="69" y="33" type="curve" smooth="yes"/>
      <point x="69" y="5"/>
      <point x="102" y="-19"/>
    </contour>
  </outline>
</glyph>
<glyph name="semicolon" format="2">
  <advance width="323"/>
  <unicode hex="003B"/>
  <outline>
    <contour>
      <point x="81" y="-163" type="curve"/>
      <point x="93" y="-194" type="line"/>
      <point x="179" y="-162"/>
      <point x="238" y="-73"/>
      <point x="238" y="18" type="curve" smooth="yes"/>
      <point x="238" y="71"/>
      <point x="200" y="109"/>
      <point x="145" y="109" type="curve" smooth="yes"/>
      <point x="102" y="109"/>
      <point x="69" y="87"/>
      <point x="69" y="54" type="curve" smooth="yes"/>
      <point x="69" y="25"/>
      <point x="87" y="1"/>
      <point x="111" y="1" type="curve" smooth="yes"/>
      <point x="133" y="1"/>
      <point x="137" y="11"/>
      <point x="156" y="11" type="curve" smooth="yes"/>
      <point x="173" y="11"/>
      <point x="183" y="-9"/>
      <point x="183" y="-37" type="curve" smooth="yes"/>
      <point x="183" y="-95"/>
      <point x="140" y="-147"/>
    </contour>
    <contour>
      <point x="191" y="233" type="curve" smooth="yes"/>
      <point x="226" y="233"/>
      <point x="254" y="255"/>
      <point x="254" y="283" type="curve" smooth="yes"/>
      <point x="254" y="309"/>
      <point x="226" y="331"/>
      <point x="191" y="331" type="curve" smooth="yes"/>
      <point x="155" y="331"/>
      <point x="126" y="309"/>
      <point x="126" y="283" type="curve" smooth="yes"/>
      <point x="126" y="255"/>
      <point x="155" y="233"/>
    </contour>
  </outline>
</glyph>
<glyph name="A" format="2">
  <advance width="798"/>
  <unicode hex="0041"/>
  <anchor x="399" y="700" name="top"/>
  <anchor x="399" y="0" name="bottom"/>
  <anchor x="718" y="10" name="ogonek"/>
  <outline>
    <contour>
      <point x="473" y="-2" type="line"/>
      <point x="774" y="0" type="line"/>
      <point x="774" y="46" type="line"/>
      <point x="768" y="46" type="line" smooth="yes"/>
      <point x="735" y="46"/>
      <point x="689" y="90"/>
      <point x="667" y="152" type="curve" smooth="yes"/>
      <point x="473" y="679" type="line"/>
      <point x="463" y="719" type="line"/>
      <point x="452" y="728" type="line"/>
      <point x="431" y="716"/>
      <point x="386" y="704"/>
      <point x="344" y="700" type="curve"/>
      <point x="344" y="666" type="line"/>
      <point x="376" y="659" type="line"/>
      <point x="472" y="388"/>
      <point x="555" y="170"/>
      <point x="576" y="107" type="curve" smooth="yes"/>
      <point x="587" y="70"/>
      <point x="570" y="44"/>
      <point x="536" y="44" type="curve" smooth="yes"/>
      <point x="473" y="44" type="line"/>
    </contour>
    <contour>
      <point x="23" y="1" type="line"/>
      <point x="322" y="1" type="line"/>
      <point x="322" y="46" type="line"/>
      <point x="315" y="46"/>
      <point x="320" y="47"/>
      <point x="302" y="47" type="curve" smooth="yes"/>
      <point x="249" y="47"/>
      <point x="218" y="77"/>
      <point x="227" y="119" type="curve"/>
      <point x="390" y="660" type="line"/>
      <point x="347" y="686" type="line"/>
      <point x="278" y="480"/>
      <point x="206" y="258"/>
      <point x="173" y="123" type="curve" smooth="yes"/>
      <point x="162" y="78"/>
      <point x="124" y="47"/>
      <point x="81" y="47" type="curve" smooth="yes"/>
      <point x="23" y="47" type="line"/>
    </contour>
    <contour>
      <point x="258" y="288" type="line"/>
      <point x="570" y="288" type="line"/>
      <point x="570" y="329" type="line"/>
      <point x="258" y="329" type="line"/>
    </contour>
  </outline>
</glyph>
<glyph name="B" format="2">
  <advance width="686"/>
  <unicode hex="0042"/>
  <anchor x="343" y="700" name="top"/>
  <anchor x="343" y="0" name="bottom"/>
  <anchor x="172" y="175" name="center"/>
  <outline>
    <contour>
      <point x="35" y="0" type="line"/>
      <point x="77" y="0"/>
      <point x="113" y="2"/>
      <point x="163" y="2" type="curve" smooth="yes"/>
      <point x="215" y="2"/>
      <point x="340" y="0"/>
      <point x="392" y="0" type="curve" smooth="yes"/>
      <point x="528" y="0"/>
      <point x="625" y="78"/>
      <point x="625" y="188" type="curve" smooth="yes"/>
      <point x="625" y="299"/>
      <point x="510" y="386"/>
      <point x="348" y="386" type="curve" smooth="yes"/>
      <point x="195" y="386" type="line"/>
      <point x="195" y="327" type="line"/>
      <point x="246" y="327"/>
      <point x="305" y="327"/>
      <point x="348" y="327" type="curve" smooth="yes"/>
      <point x="434" y="327"/>
      <point x="495" y="273"/>
      <point x="495" y="185" type="curve" smooth="yes"/>
      <point x="495" y="95"/>
      <point x="439" y="49"/>
      <point x="361" y="49" type="curve" smooth="yes"/>
      <point x="287" y="49"/>
      <point x="232" y="75"/>
      <point x="232" y="112" type="curve" smooth="yes"/>
      <point x="232" y="652" type="line"/>
      <point x="261" y="652"/>
      <point x="307" y="652"/>
      <point x="338" y="652" type="curve" smooth="yes"/>
      <point x="412" y="652"/>
      <point x="464" y="609"/>
      <point x="464" y="523" type="curve" smooth="yes"/>
      <point x="464" y="437"/>
      <point x="397" y="386"/>
      <point x="302" y="386" type="curve"/>
      <point x="302" y="335" type="line"/>
      <point x="466" y="335"/>
      <point x="582" y="426"/>
      <point x="582" y="541" type="curve" smooth="yes"/>
      <point x="582" y="629"/>
      <point x="483" y="694"/>
      <point x="344" y="699" type="curve"/>
      <point x="348" y="698"/>
      <point x="279" y="698"/>
      <point x="179" y="698" type="curve" smooth="yes"/>
      <point x="151" y="698"/>
      <point x="44" y="700"/>
      <point x="27" y="700" type="curve"/>
      <point x="27" y="655" type="line"/>
      <point x="36" y="655"/>
      <point x="42" y="655"/>
      <point x="53" y="655" type="curve" smooth="yes"/>
      <point x="99" y="655"/>
      <point x="132" y="647"/>
      <point x="132" y="611" type="curve" smooth="yes"/>
      <point x="132" y="562"/>
      <point x="132" y="104"/>
      <point x="132" y="71" type="curve" smooth="yes"/>
      <point x="132" y="46"/>
      <point x="107" y="46"/>
      <point x="72" y="46" type="curve" smooth="yes"/>
      <point x="35" y="46" type="line"/>
    </contour>
  </outline>
</glyph>
<glyph name="C" format="2">
  <advance width="827"/>
  <unicode hex="0043"/>
  <anchor x="414" y="700" name="top"/>
  <anchor x="414" y="0" name="bottom"/>
  <outline>
    <contour>
      <point x="453" y="-8" type="curve" smooth="yes"/>
      <point x="570" y="-8"/>
      <point x="695" y="44"/>
      <point x="754" y="118" type="curve"/>
      <point x="757" y="267" type="line"/>
      <point x="734" y="269" type="line"/>
      <point x="721" y="142"/>
      <point x="619" y="52"/>
      <point x="488" y="52" type="curve" smooth="yes"/>
      <point x="322" y="52"/>
      <point x="195" y="192"/>
      <point x="195" y="415" type="curve" smooth="yes"/>
      <point x="195" y="574"/>
      <point x="302" y="670"/>
      <point x="438" y="670" type="curve" smooth="yes"/>
      <point x="565" y="670"/>
      <point x="672" y="607"/>
      <point x="695" y="519" type="curve"/>
      <point x="719" y="519" type="line"/>
      <point x="709" y="707" type="line"/>
      <point x="682" y="707" type="line"/>
      <point x="677" y="689"/>
      <point x="666" y="677"/>
      <point x="656" y="677" type="curve"/>
      <point x="611" y="705"/>
      <point x="525" y="725"/>
      <point x="449" y="725" type="curve" smooth="yes"/>
      <point x="226" y="725"/>
      <point x="69" y="573"/>
      <point x="69" y="359" type="curve" smooth="yes"/>
      <point x="69" y="144"/>
      <point x="228" y="-8"/>
    </contour>
  </outline>
</glyph>
<glyph name="D" format="2">
  <advance width="828"/>
  <unicode hex="0044"/>
  <anchor x="414" y="700" name="top"/>
  <anchor x="414" y="0" name="bottom"/>
  <anchor x="207" y="350" name="center"/>
  <outline>
    <contour>
      <point x="-6" y="-3" type="line"/>
      <point x="56" y="-1"/>
      <point x="133" y="0"/>
      <point x="178" y="0" type="curve" smooth="yes"/>
      <point x="236" y="0"/>
      <point x="308" y="-3"/>
      <point x="375" y="-3" type="curve" smooth="yes"/>
      <point x="599" y="-3"/>
      <point x="758" y="160"/>
      <point x="758" y="390" type="curve" smooth="yes"/>
      <point x="758" y="573"/>
      <point x="613" y="702"/>
      <point x="407" y="702" type="curve" smooth="yes"/>
      <point x="345" y="702"/>
      <point x="203" y="700"/>
      <point x="173" y="700" type="curve" smooth="yes"/>
      <point x="143" y="700"/>
      <point x="91" y="702"/>
      <point x="77" y="702" type="curve" smooth="yes"/>
      <point x="4" y="702" type="line"/>
      <point x="4" y="655" type="line"/>
      <point x="17" y="655"/>
      <point x="17" y="655"/>
      <point x="44" y="655" type="curve" smooth="yes"/>
      <point x="95" y="655"/>
      <point x="132" y="636"/>
      <point x="132" y="586" type="curve" smooth="yes"/>
      <point x="132" y="519"/>
      <point x="132" y="163"/>
      <point x="132" y="132" type="curve" smooth="yes"/>
      <point x="132" y="71"/>
      <point x="89" y="45"/>
      <point x="30" y="45" type="curve" smooth="yes"/>
      <point x="-6" y="45" type="line"/>
    </contour>
    <contour>
      <point x="382" y="50" type="curve" smooth="yes"/>
      <point x="295" y="50"/>
      <point x="232" y="63"/>
      <point x="232" y="107" type="curve" smooth="yes"/>
      <point x="232" y="649" type="line"/>
      <point x="277" y="649"/>
      <point x="339" y="649"/>
      <point x="375" y="649" type="curve" smooth="yes"/>
      <point x="518" y="649"/>
      <point x="630" y="546"/>
      <point x="630" y="368" type="curve" smooth="yes"/>
      <point x="630" y="168"/>
      <point x="521" y="50"/>
    </contour>
  </outline>
</glyph>
<glyph name="E" format="2">
  <advance width="703"/>
  <unicode hex="0045"/>
  <anchor x="352" y="700" name="top"/>
  <anchor x="352" y="0" name="bottom"/>
  <anchor x="633" y="10" name="ogonek"/>
  <anchor x="20" y="700" name="topleft"/>
  <outline>
    <contour>
      <point x="327" y="-1" type="curve" smooth="yes"/>
      <point x="573" y="-1" type="line"/>
      <point x="652" y="143" type="line"/>
      <point x="610" y="158" type="line"/>
      <point x="564" y="82"/>
      <point x="517" y="52"/>
      <point x="472" y="52" type="curve" smooth="yes"/>
      <point x="452" y="52"/>
      <point x="304" y="52"/>
      <point x="278" y="52" type="curve" smooth="yes"/>
      <point x="250" y="52"/>
      <point x="232" y="74"/>
      <point x="232" y="88" type="curve" smooth="yes"/>
      <point x="232" y="202"/>
      <point x="232" y="582"/>
      <point x="232" y="603" type="curve" smooth="yes"/>
      <point x="232" y="629"/>
      <point x="260" y="648"/>
      <point x="302" y="648" type="curve" smooth="yes"/>
      <point x="322" y="648"/>
      <point x="427" y="648"/>
      <point x="440" y="648" type="curve" smooth="yes"/>
      <point x="501" y="648"/>
      <point x="528" y="625"/>
      <point x="528" y="561" type="curve"/>
      <point x="573" y="561" type="line"/>
      <point x="573" y="700" type="line"/>
      <point x="489" y="700"/>
      <point x="342" y="700"/>
      <point x="322" y="700" type="curve" smooth="yes"/>
      <point x="302" y="700"/>
      <point x="208" y="697"/>
      <point x="193" y="697" type="curve" smooth="yes"/>
      <point x="178" y="697"/>
      <point x="81" y="700"/>
      <point x="58" y="700" type="curve"/>
      <point x="58" y="650" type="line"/>
      <point x="103" y="650"/>
      <point x="132" y="626"/>
      <point x="132" y="592" type="curve" smooth="yes"/>
      <point x="132" y="568"/>
      <point x="132" y="181"/>
      <point x="132" y="137" type="curve" smooth="yes"/>
      <point x="132" y="76"/>
      <point x="112" y="51"/>
      <point x="81" y="51" type="curve" smooth="yes"/>
      <point x="46" y="51" type="line"/>
      <point x="46" y="0" type="line"/>
      <point x="77" y="0"/>
      <point x="138" y="0"/>
      <point x="182" y="0" type="curve" smooth="yes"/>
      <point x="226" y="0"/>
      <point x="290" y="-1"/>
    </contour>
    <contour>
      <point x="477" y="260" type="curve"/>
      <point x="513" y="260" type="line"/>
      <point x="509" y="327"/>
      <point x="509" y="395"/>
      <point x="513" y="462" type="curve"/>
      <point x="476" y="462" type="line"/>
      <point x="476" y="403"/>
      <point x="452" y="383"/>
      <point x="413" y="383" type="curve" smooth="yes"/>
      <point x="204" y="383" type="line"/>
      <point x="203" y="335" type="line"/>
      <point x="266" y="335"/>
      <point x="388" y="335"/>
      <point x="413" y="335" type="curve" smooth="yes"/>
      <point x="453" y="335"/>
      <point x="477" y="295"/>
    </contour>
  </outline>
</glyph>
<glyph name="F" format="2">
  <advance width="597"/>
  <unicode hex="0046"/>
  <anchor x="299" y="700" name="top"/>
  <anchor x="299" y="0" name="bottom"/>
  <outline>
    <contour>
      <point x="325" y="-1" type="curve"/>
      <point x="325" y="45" type="line"/>
      <point x="303" y="45"/>
      <point x="286" y="45"/>
      <point x="278" y="45" type="curve" smooth="yes"/>
      <point x="250" y="45"/>
      <point x="232" y="49"/>
      <point x="232" y="81" type="curve" smooth="yes"/>
      <point x="232" y="195"/>
      <point x="232" y="582"/>
      <point x="232" y="603" type="curve" smooth="yes"/>
      <point x="232" y="629"/>
      <point x="260" y="648"/>
      <point x="302" y="648" type="curve" smooth="yes"/>
      <point x="322" y="648"/>
      <point x="427" y="648"/>
      <point x="440" y="648" type="curve" smooth="yes"/>
      <point x="501" y="648"/>
      <point x="518" y="625"/>
      <point x="528" y="561" type="curve"/>
      <point x="573" y="561" type="line"/>
      <point x="563" y="700" type="line"/>
      <point x="479" y="700"/>
      <point x="342" y="700"/>
      <point x="322" y="700" type="curve" smooth="yes"/>
      <point x="302" y="700"/>
      <point x="208" y="697"/>
      <point x="193" y="697" type="curve" smooth="yes"/>
      <point x="178" y="697"/>
      <point x="81" y="700"/>
      <point x="58" y="700" type="curve"/>
      <point x="58" y="650" type="line"/>
      <point x="103" y="650"/>
      <point x="132" y="626"/>
      <point x="132" y="592" type="curve" smooth="yes"/>
      <point x="132" y="568"/>
      <point x="132" y="181"/>
      <point x="132" y="137" type="curve" smooth="yes"/>
      <point x="132" y="69"/>
      <point x="112" y="44"/>
      <point x="81" y="44" type="curve" smooth="yes"/>
      <point x="46" y="44" type="line"/>
      <point x="46" y="0" type="line"/>
      <point x="77" y="0"/>
      <point x="138" y="0"/>
      <point x="182" y="0" type="curve" smooth="yes"/>
      <point x="225" y="0"/>
      <point x="288" y="-1"/>
    </contour>
    <contour>
      <point x="457" y="240" type="curve"/>
      <point x="493" y="240" type="line"/>
      <point x="489" y="307"/>
      <point x="489" y="415"/>
      <point x="493" y="482" type="curve"/>
      <point x="456" y="482" type="line"/>
      <point x="456" y="423"/>
      <point x="432" y="383"/>
      <point x="393" y="383" type="curve" smooth="yes"/>
      <point x="204" y="383" type="line"/>
      <point x="203" y="335" type="line"/>
      <point x="266" y="335"/>
      <point x="368" y="335"/>
      <point x="393" y="335" type="curve" smooth="yes"/>
      <point x="433" y="335"/>
      <point x="457" y="275"/>
    </contour>
  </outline>
</glyph>
<glyph name="G" format="2">
  <advance width="870"/>
  <unicode hex="0047"/>
  <anchor x="435" y="700" name="top"/>
  <anchor x="435" y="0" name="bottom"/>
  <outline>
    <contour>
      <point x="481" y="-20" type="curve" smooth="yes"/>
      <point x="559" y="-20"/>
      <point x="673" y="13"/>
      <point x="756" y="59" type="curve"/>
      <point x="756" y="73" type="line"/>
      <point x="745" y="79"/>
      <point x="737" y="89"/>
      <point x="737" y="96" type="curve" smooth="yes"/>
      <point x="737" y="109"/>
      <point x="737" y="199"/>
      <point x="737" y="222" type="curve" smooth="yes"/>
      <point x="737" y="252"/>
      <point x="756" y="274"/>
      <point x="783" y="274" type="curve" smooth="yes"/>
      <point x="807" y="274" type="line"/>
      <point x="807" y="327" type="line"/>
      <point x="492" y="327" type="line"/>
      <point x="492" y="273" type="line"/>
      <point x="515" y="273"/>
      <point x="586" y="273"/>
      <point x="592" y="273" type="curve" smooth="yes"/>
      <point x="617" y="273"/>
      <point x="635" y="234"/>
      <point x="635" y="180" type="curve" smooth="yes"/>
      <point x="635" y="80"/>
      <point x="569" y="28"/>
      <point x="490" y="28" type="curve" smooth="yes"/>
      <point x="334" y="28"/>
      <point x="204" y="150"/>
      <point x="204" y="347" type="curve" smooth="yes"/>
      <point x="204" y="540"/>
      <point x="325" y="659"/>
      <point x="497" y="659" type="curve" smooth="yes"/>
      <point x="605" y="659"/>
      <point x="700" y="589"/>
      <point x="728" y="490" type="curve"/>
      <point x="749" y="490" type="line"/>
      <point x="749" y="694" type="line"/>
      <point x="681" y="694"/>
      <point x="571" y="712"/>
      <point x="479" y="712" type="curve" smooth="yes"/>
      <point x="239" y="712"/>
      <point x="69" y="561"/>
      <point x="69" y="348" type="curve" smooth="yes"/>
      <point x="69" y="132"/>
      <point x="240" y="-20"/>
    </contour>
  </outline>
</glyph>
<glyph name="H" format="2">
  <advance width="873"/>
  <unicode hex="0048"/>
  <anchor x="437" y="700" name="top"/>
  <anchor x="437" y="0" name="bottom"/>
  <anchor x="437" y="525" name="center"/>
  <anchor x="20" y="700" name="topleft"/>
  <outline>
    <contour>
      <point x="522" y="0" type="line"/>
      <point x="856" y="0" type="line"/>
      <point x="856" y="46" type="line"/>
      <point x="850" y="46"/>
      <point x="845" y="46"/>
      <point x="837" y="46" type="curve" smooth="yes"/>
      <point x="788" y="46"/>
      <point x="740" y="81"/>
      <point x="740" y="112" type="curve" smooth="yes"/>
      <point x="740" y="137"/>
      <point x="740" y="581"/>
      <point x="740" y="605" type="curve" smooth="yes"/>
      <point x="740" y="627"/>
      <point x="774" y="655"/>
      <point x="803" y="655" type="curve" smooth="yes"/>
      <point x="831" y="655" type="line"/>
      <point x="831" y="700" type="line"/>
      <point x="526" y="700" type="line"/>
      <point x="526" y="655" type="line"/>
      <point x="537" y="655"/>
      <point x="546" y="655"/>
      <point x="559" y="655" type="curve" smooth="yes"/>
      <point x="599" y="655"/>
      <point x="640" y="635"/>
      <point x="640" y="624" type="curve" smooth="yes"/>
      <point x="640" y="601"/>
      <point x="640" y="146"/>
      <point x="640" y="125" type="curve" smooth="yes"/>
      <point x="640" y="86"/>
      <point x="600" y="46"/>
      <point x="562" y="46" type="curve" smooth="yes"/>
      <point x="522" y="46" type="line"/>
    </contour>
    <contour>
      <point x="30" y="0" type="line"/>
      <point x="353" y="0" type="line"/>
      <point x="353" y="46" type="line"/>
      <point x="346" y="46"/>
      <point x="346" y="46"/>
      <point x="332" y="46" type="curve" smooth="yes"/>
      <point x="281" y="46"/>
      <point x="232" y="79"/>
      <point x="232" y="108" type="curve" smooth="yes"/>
      <point x="232" y="138"/>
      <point x="232" y="591"/>
      <point x="232" y="612" type="curve" smooth="yes"/>
      <point x="232" y="630"/>
      <point x="260" y="655"/>
      <point x="282" y="655" type="curve" smooth="yes"/>
      <point x="332" y="655" type="line"/>
      <point x="332" y="700" type="line"/>
      <point x="43" y="700" type="line"/>
      <point x="43" y="655" type="line"/>
      <point x="51" y="655"/>
      <point x="58" y="655"/>
      <point x="68" y="655" type="curve" smooth="yes"/>
      <point x="96" y="655"/>
      <point x="132" y="652"/>
      <point x="132" y="632" type="curve" smooth="yes"/>
      <point x="132" y="578"/>
      <point x="132" y="164"/>
      <point x="132" y="132" type="curve" smooth="yes"/>
      <point x="132" y="89"/>
      <point x="95" y="46"/>
      <point x="69" y="46" type="curve" smooth="yes"/>
      <point x="30" y="46" type="line"/>
    </contour>
    <contour>
      <point x="222" y="345" type="line"/>
      <point x="685" y="345" type="line"/>
      <point x="685" y="398" type="line"/>
      <point x="222" y="398" type="line"/>
    </contour>
  </outline>
</glyph>
<glyph name="I" format="2">
  <advance width="365"/>
  <unicode hex="0049"/>
  <anchor x="183" y="700" name="top"/>
  <anchor x="183" y="0" name="bottom"/>
  <anchor x="329" y="10" name="ogonek"/>
  <anchor x="20" y="700" name="topleft"/>
  <outline>
    <contour>
      <point x="40" y="0" type="line"/>
      <point x="303" y="0" type="line"/>
      <point x="303" y="46" type="line"/>
      <point x="296" y="46"/>
      <point x="286" y="46"/>
      <point x="272" y="46" type="curve" smooth="yes"/>
      <point x="250" y="46"/>
      <point x="232" y="61"/>
      <point x="232" y="108" type="curve" smooth="yes"/>
      <point x="232" y="138"/>
      <point x="232" y="591"/>
      <point x="232" y="612" type="curve" smooth="yes"/>
      <point x="232" y="630"/>
      <point x="254" y="655"/>
      <point x="282" y="655" type="curve" smooth="yes"/>
      <point x="325" y="655" type="line"/>
      <point x="325" y="700" type="line"/>
      <point x="38" y="700" type="line"/>
      <point x="38" y="655" type="line"/>
      <point x="46" y="655"/>
      <point x="53" y="655"/>
      <point x="63" y="655" type="curve" smooth="yes"/>
      <point x="102" y="655"/>
      <point x="132" y="645"/>
      <point x="132" y="632" type="curve" smooth="yes"/>
      <point x="132" y="578"/>
      <point x="132" y="164"/>
      <point x="132" y="132" type="curve" smooth="yes"/>
      <point x="132" y="71"/>
      <point x="100" y="46"/>
      <point x="59" y="46" type="curve" smooth="yes"/>
      <point x="40" y="46" type="line"/>
    </contour>
  </outline>
</glyph>
<glyph name="J" format="2">
  <advance width="347"/>
  <unicode hex="004A"/>
  <anchor x="174" y="700" name="top"/>
  <anchor x="174" y="0" name="bottom"/>
  <outline>
    <contour>
      <point x="51" y="-373" type="curve" smooth="yes"/>
      <point x="158" y="-373"/>
      <point x="232" y="-294"/>
      <point x="232" y="-183" type="curve" smooth="yes"/>
      <point x="232" y="-92"/>
      <point x="232" y="570"/>
      <point x="232" y="611" type="curve" smooth="yes"/>
      <point x="232" y="649"/>
      <point x="270" y="657"/>
      <point x="323" y="655" type="curve" smooth="yes"/>
      <point x="352" y="654" type="line"/>
      <point x="352" y="700" type="line"/>
      <point x="43" y="700" type="line"/>
      <point x="43" y="654" type="line"/>
      <point x="52" y="654"/>
      <point x="59" y="655"/>
      <point x="70" y="655" type="curve" smooth="yes"/>
      <point x="106" y="655"/>
      <point x="132" y="654"/>
      <point x="132" y="628" type="curve" smooth="yes"/>
      <point x="132" y="591"/>
      <point x="132" y="-199"/>
      <point x="132" y="-236" type="curve" smooth="yes"/>
      <point x="132" y="-288"/>
      <point x="100" y="-324"/>
      <point x="56" y="-324" type="curve" smooth="yes"/>
      <point x="6" y="-324"/>
      <point x="-29" y="-302"/>
      <point x="-29" y="-270" type="curve" smooth="yes"/>
      <point x="-29" y="-244"/>
      <point x="-15" y="-256"/>
      <point x="-15" y="-239" type="curve" smooth="yes"/>
      <point x="-15" y="-227"/>
      <point x="-32" y="-219"/>
      <point x="-56" y="-219" type="curve" smooth="yes"/>
      <point x="-84" y="-219"/>
      <point x="-103" y="-249"/>
      <point x="-103" y="-292" type="curve" smooth="yes"/>
      <point x="-103" y="-339"/>
      <point x="-39" y="-373"/>
    </contour>
  </outline>
</glyph>
<glyph name="K" format="2">
  <advance width="759"/>
  <unicode hex="004B"/>
  <anchor x="380" y="700" name="top"/>
  <anchor x="380" y="0" name="bottom"/>
  <outline>
    <contour>
      <point x="593" y="0" type="curve" smooth="yes"/>
      <point x="744" y="0" type="line"/>
      <point x="744" y="46" type="line"/>
      <point x="737" y="46" type="line" smooth="yes"/>
      <point x="709" y="46"/>
      <point x="676" y="59"/>
      <point x="632" y="99" type="curve" smooth="yes"/>
      <point x="323" y="393" type="line"/>
      <point x="404" y="472"/>
      <point x="483" y="570"/>
      <point x="504" y="589" type="curve" smooth="yes"/>
      <point x="539" y="623"/>
      <point x="570" y="664"/>
      <point x="626" y="664" type="curve" smooth="yes"/>
      <point x="673" y="664" type="line"/>
      <point x="673" y="703" type="line"/>
      <point x="408" y="703" type="line"/>
      <point x="408" y="664" type="line"/>
      <point x="436" y="664" type="line" smooth="yes"/>
      <point x="510" y="664"/>
      <point x="489" y="631"/>
      <point x="451" y="589" type="curve" smooth="yes"/>
      <point x="230" y="358" type="line"/>
      <point x="230" y="468"/>
      <point x="233" y="575"/>
      <point x="233" y="594" type="curve" smooth="yes"/>
      <point x="233" y="640"/>
      <point x="254" y="655"/>
      <point x="280" y="655" type="curve" smooth="yes"/>
      <point x="314" y="655" type="line"/>
      <point x="314" y="700" type="line"/>
      <point x="62" y="700" type="line"/>
      <point x="62" y="655" type="line"/>
      <point x="90" y="655" type="line" smooth="yes"/>
      <point x="113" y="655"/>
      <point x="132" y="638"/>
      <point x="132" y="630" type="curve" smooth="yes"/>
      <point x="132" y="83" type="line" smooth="yes"/>
      <point x="132" y="51"/>
      <point x="114" y="46"/>
      <point x="93" y="46" type="curve" smooth="yes"/>
      <point x="77" y="46" type="line"/>
      <point x="77" y="0" type="line"/>
      <point x="329" y="0" type="line"/>
      <point x="329" y="46" type="line"/>
      <point x="298" y="46" type="line" smooth="yes"/>
      <point x="260" y="46"/>
      <point x="233" y="52"/>
      <point x="233" y="87" type="curve" smooth="yes"/>
      <point x="231" y="301" type="line"/>
      <point x="246" y="316" type="line"/>
      <point x="525" y="36" type="line" smooth="yes"/>
      <point x="546" y="15"/>
      <point x="577" y="0"/>
    </contour>
  </outline>
</glyph>
<glyph name="L" format="2">
  <advance width="720"/>
  <unicode hex="004C"/>
  <anchor x="360" y="700" name="top"/>
  <anchor x="360" y="0" name="bottom"/>
  <anchor x="360" y="350" name="center"/>
  <anchor x="700" y="700" name="topright"/>
  <outline>
    <contour>
      <point x="21" y="53" type="curve"/>
      <point x="21" y="0" type="line"/>
      <point x="610" y="0" type="line"/>
      <point x="678" y="162" type="line"/>
      <point x="629" y="169" type="line"/>
      <point x="598" y="91"/>
      <point x="552" y="53"/>
      <point x="492" y="53" type="curve" smooth="yes"/>
      <point x="423" y="53"/>
      <point x="329" y="53"/>
      <point x="306" y="53" type="curve" smooth="yes"/>
      <point x="266" y="53"/>
      <point x="232" y="74"/>
      <point x="232" y="130" type="curve" smooth="yes"/>
      <point x="232" y="179"/>
      <point x="232" y="558"/>
      <point x="232" y="608" type="curve" smooth="yes"/>
      <point x="232" y="645"/>
      <point x="285" y="655"/>
      <point x="354" y="655" type="curve" smooth="yes"/>
      <point x="374" y="655" type="line"/>
      <point x="374" y="700" type="line"/>
      <point x="19" y="700" type="line"/>
      <point x="19" y="655" type="line"/>
      <point x="45" y="655" type="line" smooth="yes"/>
      <point x="94" y="655"/>
      <point x="132" y="636"/>
      <point x="132" y="584" type="curve" smooth="yes"/>
      <point x="132" y="533"/>
      <point x="132" y="166"/>
      <point x="132" y="125" type="curve" smooth="yes"/>
      <point x="132" y="72"/>
      <point x="110" y="53"/>
      <point x="84" y="53" type="curve" smooth="yes"/>
      <point x="66" y="53"/>
      <point x="35" y="53"/>
    </contour>
  </outline>
</glyph>
<glyph name="M" format="2">
  <advance width="958"/>
  <unicode hex="004D"/>
  <anchor x="479" y="700" name="top"/>
  <anchor x="479" y="0" name="bottom"/>
  <outline>
    <contour>
      <point x="213" y="538" type="curve" smooth="yes"/>
      <point x="432" y="0" type="line"/>
      <point x="455" y="0" type="line"/>
      <point x="744" y="640" type="line"/>
      <point x="727" y="700" type="line"/>
      <point x="479" y="150" type="line"/>
      <point x="255" y="700" type="line"/>
      <point x="35" y="700" type="line"/>
      <point x="35" y="664" type="line"/>
      <point x="56" y="664"/>
      <point x="85" y="664"/>
      <point x="109" y="664" type="curve" smooth="yes"/>
      <point x="141" y="664"/>
      <point x="184" y="609"/>
    </contour>
    <contour>
      <point x="34" y="0" type="line"/>
      <point x="293" y="0" type="line"/>
      <point x="293" y="45" type="line"/>
      <point x="283" y="45"/>
      <point x="275" y="45"/>
      <point x="264" y="45" type="curve" smooth="yes"/>
      <point x="212" y="45"/>
      <point x="176" y="54"/>
      <point x="176" y="92" type="curve" smooth="yes"/>
      <point x="176" y="656" type="line"/>
      <point x="132" y="656" type="line"/>
      <point x="132" y="484"/>
      <point x="132" y="187"/>
      <point x="132" y="141" type="curve" smooth="yes"/>
      <point x="132" y="74"/>
      <point x="120" y="45"/>
      <point x="78" y="45" type="curve" smooth="yes"/>
      <point x="34" y="45" type="line"/>
    </contour>
    <contour>
      <point x="624" y="0" type="line"/>
      <point x="933" y="0" type="line"/>
      <point x="933" y="46" type="line"/>
      <point x="922" y="46"/>
      <point x="914" y="46"/>
      <point x="901" y="46" type="curve" smooth="yes"/>
      <point x="856" y="46"/>
      <point x="826" y="53"/>
      <point x="826" y="88" type="curve" smooth="yes"/>
      <point x="826" y="126"/>
      <point x="826" y="580"/>
      <point x="826" y="611" type="curve" smooth="yes"/>
      <point x="826" y="640"/>
      <point x="844" y="664"/>
      <point x="870" y="664" type="curve" smooth="yes"/>
      <point x="911" y="664" type="line"/>
      <point x="911" y="700" type="line"/>
      <point x="726" y="700" type="line"/>
      <point x="726" y="498"/>
      <point x="726" y="114"/>
      <point x="726" y="91" type="curve" smooth="yes"/>
      <point x="726" y="54"/>
      <point x="718" y="46"/>
      <point x="705" y="46" type="curve" smooth="yes"/>
      <point x="626" y="46" type="line"/>
    </contour>
  </outline>
</glyph>
<glyph name="N" format="2">
  <advance width="858"/>
  <unicode hex="004E"/>
  <anchor x="429" y="700" name="top"/>
  <anchor x="429" y="0" name="bottom"/>
  <outline>
    <contour>
      <point x="133" y="634" type="curve" smooth="yes"/>
      <point x="711" y="-6" type="line"/>
      <point x="744" y="-6" type="line"/>
      <point x="744" y="189"/>
      <point x="744" y="535"/>
      <point x="744" y="579" type="curve" smooth="yes"/>
      <point x="744" y="633"/>
      <point x="780" y="655"/>
      <point x="832" y="655" type="curve" smooth="yes"/>
      <point x="871" y="655" type="line"/>
      <point x="871" y="700" type="line"/>
      <point x="553" y="700" type="line"/>
      <point x="553" y="655" type="line"/>
      <point x="564" y="655"/>
      <point x="605" y="655"/>
      <point x="619" y="655" type="curve" smooth="yes"/>
      <point x="662" y="655"/>
      <point x="692" y="640"/>
      <point x="692" y="594" type="curve" smooth="yes"/>
      <point x="692" y="164" type="line"/>
      <point x="208" y="700" type="line"/>
      <point x="18" y="697" type="line"/>
      <point x="18" y="652" type="line"/>
      <point x="31" y="652"/>
      <point x="42" y="652"/>
      <point x="56" y="652" type="curve" smooth="yes"/>
      <point x="82" y="652"/>
      <point x="114" y="654"/>
    </contour>
    <contour>
      <point x="48" y="0" type="line"/>
      <point x="339" y="0" type="line"/>
      <point x="339" y="45" type="line"/>
      <point x="279" y="45"/>
      <point x="275" y="45"/>
      <point x="264" y="45" type="curve" smooth="yes"/>
      <point x="212" y="45"/>
      <point x="176" y="72"/>
      <point x="176" y="92" type="curve" smooth="yes"/>
      <point x="176" y="656" type="line"/>
      <point x="132" y="656" type="line"/>
      <point x="132" y="484"/>
      <point x="132" y="187"/>
      <point x="132" y="141" type="curve" smooth="yes"/>
      <point x="132" y="74"/>
      <point x="120" y="45"/>
      <point x="78" y="45" type="curve" smooth="yes"/>
      <point x="48" y="45" type="line"/>
    </contour>
  </outline>
</glyph>
<glyph name="O" format="2">
  <advance width="913"/>
  <unicode hex="004F"/>
  <anchor x="456" y="700" name="top"/>
  <anchor x="457" y="0" name="bottom"/>
  <anchor x="457" y="350" name="center"/>
  <anchor x="893" y="700" name="topright"/>
  <anchor x="822" y="10" name="ogonek"/>
  <anchor x="20" y="700" name="topleft"/>
  <outline>
    <contour>
      <point x="449" y="-11" type="curve" smooth="yes"/>
      <point x="680" y="-11"/>
      <point x="843" y="145"/>
      <point x="843" y="365" type="curve" smooth="yes"/>
      <point x="843" y="572"/>
      <point x="681" y="719"/>
      <point x="453" y="719" type="curve" smooth="yes"/>
      <point x="228" y="719"/>
      <point x="69" y="572"/>
      <point x="69" y="365" type="curve" smooth="yes"/>
      <point x="69" y="145"/>
      <point x="226" y="-11"/>
    </contour>
    <contour>
      <point x="468" y="37" type="curve" smooth="yes"/>
      <point x="313" y="37"/>
      <point x="203" y="179"/>
      <point x="203" y="405" type="curve" smooth="yes"/>
      <point x="203" y="571"/>
      <point x="303" y="672"/>
      <point x="445" y="672" type="curve" smooth="yes"/>
      <point x="600" y="672"/>
      <point x="710" y="539"/>
      <point x="710" y="326" type="curve" smooth="yes"/>
      <point x="710" y="146"/>
      <point x="610" y="37"/>
    </contour>
  </outline>
</glyph>
<glyph name="P" format="2">
  <advance width="615"/>
  <unicode hex="0050"/>
  <anchor x="308" y="700" name="top"/>
  <anchor x="308" y="0" name="bottom"/>
  <outline>
    <contour>
      <point x="49" y="0" type="line"/>
      <point x="345" y="0" type="line"/>
      <point x="345" y="46" type="line"/>
      <point x="338" y="46"/>
      <point x="315" y="46"/>
      <point x="305" y="46" type="curve" smooth="yes"/>
      <point x="265" y="46"/>
      <point x="232" y="57"/>
      <point x="232" y="98" type="curve" smooth="yes"/>
      <point x="232" y="148"/>
      <point x="232" y="609"/>
      <point x="232" y="625" type="curve" smooth="yes"/>
      <point x="232" y="640"/>
      <point x="257" y="650"/>
      <point x="285" y="650" type="curve" smooth="yes"/>
      <point x="389" y="650"/>
      <point x="463" y="595"/>
      <point x="463" y="486" type="curve" smooth="yes"/>
      <point x="463" y="382"/>
      <point x="401" y="327"/>
      <point x="313" y="327" type="curve"/>
      <point x="313" y="279" type="line"/>
      <point x="471" y="279"/>
      <point x="582" y="369"/>
      <point x="582" y="497" type="curve" smooth="yes"/>
      <point x="582" y="616"/>
      <point x="477" y="702"/>
      <point x="328" y="702" type="curve" smooth="yes"/>
      <point x="274" y="702"/>
      <point x="190" y="699"/>
      <point x="162" y="699" type="curve" smooth="yes"/>
      <point x="146" y="699"/>
      <point x="92" y="702"/>
      <point x="32" y="702" type="curve"/>
      <point x="32" y="655" type="line"/>
      <point x="87" y="655"/>
      <point x="132" y="653"/>
      <point x="132" y="625" type="curve" smooth="yes"/>
      <point x="132" y="579"/>
      <point x="132" y="81"/>
      <point x="132" y="63" type="curve" smooth="yes"/>
      <point x="132" y="43"/>
      <point x="109" y="46"/>
      <point x="86" y="46" type="curve" smooth="yes"/>
      <point x="49" y="46" type="line"/>
    </contour>
  </outline>
</glyph>
<glyph name="Q" format="2">
  <advance width="913"/>
  <unicode hex="0051"/>
  <anchor x="457" y="700" name="top"/>
  <anchor x="457" y="0" name="bottom"/>
  <outline>
    <contour>
      <point x="449" y="-18" type="curve" smooth="yes"/>
      <point x="680" y="-18"/>
      <point x="843" y="138"/>
      <point x="843" y="358" type="curve" smooth="yes"/>
      <point x="843" y="565"/>
      <point x="681" y="712"/>
      <point x="453" y="712" type="curve" smooth="yes"/>
      <point x="228" y="712"/>
      <point x="69" y="565"/>
      <point x="69" y="358" type="curve" smooth="yes"/>
      <point x="69" y="138"/>
      <point x="226" y="-18"/>
    </contour>
    <contour>
      <point x="1055" y="-175" type="curve" smooth="yes"/>
      <point x="1088" y="-175"/>
      <point x="1132" y="-171"/>
      <point x="1161" y="-165" type="curve"/>
      <point x="1161" y="-122" type="line"/>
      <point x="908" y="-135"/>
      <point x="670" y="-84"/>
      <point x="586" y="27" type="curve"/>
      <point x="532" y="8"/>
      <point x="483" y="-5"/>
      <point x="468" y="-5" type="curve" smooth="yes"/>
      <point x="437" y="-5"/>
      <point x="381" y="13"/>
      <point x="334" y="38" type="curve"/>
      <point x="340" y="8" type="line"/>
      <point x="507" y="-99"/>
      <point x="804" y="-175"/>
    </contour>
    <contour>
      <point x="468" y="30" type="curve" smooth="yes"/>
      <point x="313" y="30"/>
      <point x="203" y="172"/>
      <point x="203" y="398" type="curve" smooth="yes"/>
      <point x="203" y="564"/>
      <point x="303" y="665"/>
      <point x="445" y="665" type="curve" smooth="yes"/>
      <point x="600" y="665"/>
      <point x="710" y="532"/>
      <point x="710" y="319" type="curve" smooth="yes"/>
      <point x="710" y="139"/>
      <point x="610" y="30"/>
    </contour>
  </outline>
</glyph>
<glyph name="R" format="2">
  <advance width="773"/>
  <unicode hex="0052"/>
  <anchor x="387" y="700" name="top"/>
  <anchor x="387" y="0" name="bottom"/>
  <outline>
    <contour>
      <point x="598" y="-3" type="curve" smooth="yes"/>
      <point x="662" y="-3"/>
      <point x="728" y="-2"/>
      <point x="758" y="0" type="curve"/>
      <point x="758" y="47" type="line"/>
      <point x="757" y="46"/>
      <point x="740" y="46"/>
      <point x="718" y="46" type="curve" smooth="yes"/>
      <point x="692" y="46"/>
      <point x="636" y="64"/>
      <point x="616" y="89" type="curve" smooth="yes"/>
      <point x="486" y="249"/>
      <point x="382" y="345"/>
      <point x="365" y="362" type="curve"/>
      <point x="385" y="328" type="line"/>
      <point x="509" y="352"/>
      <point x="597" y="439"/>
      <point x="597" y="537" type="curve" smooth="yes"/>
      <point x="597" y="627"/>
      <point x="498" y="700"/>
      <point x="358" y="700" type="curve" smooth="yes"/>
      <point x="317" y="700"/>
      <point x="205" y="698"/>
      <point x="175" y="698" type="curve" smooth="yes"/>
      <point x="124" y="698"/>
      <point x="74" y="700"/>
      <point x="23" y="700" type="curve"/>
      <point x="23" y="655" type="line"/>
      <point x="30" y="655"/>
      <point x="29" y="655"/>
      <point x="44" y="655" type="curve" smooth="yes"/>
      <point x="91" y="655"/>
      <point x="132" y="639"/>
      <point x="132" y="593" type="curve" smooth="yes"/>
      <point x="132" y="539"/>
      <point x="132" y="103"/>
      <point x="132" y="73" type="curve" smooth="yes"/>
      <point x="132" y="47"/>
      <point x="105" y="46"/>
      <point x="77" y="46" type="curve" smooth="yes"/>
      <point x="45" y="46" type="line"/>
      <point x="45" y="0" type="line"/>
      <point x="325" y="0" type="line"/>
      <point x="325" y="46" type="line"/>
      <point x="311" y="46"/>
      <point x="292" y="46"/>
      <point x="262" y="46" type="curve" smooth="yes"/>
      <point x="248" y="46"/>
      <point x="232" y="64"/>
      <point x="232" y="72" type="curve" smooth="yes"/>
      <point x="232" y="116"/>
      <point x="232" y="588"/>
      <point x="232" y="625" type="curve" smooth="yes"/>
      <point x="232" y="631"/>
      <point x="256" y="648"/>
      <point x="281" y="648" type="curve" smooth="yes"/>
      <point x="305" y="648"/>
      <point x="321" y="648"/>
      <point x="344" y="648" type="curve" smooth="yes"/>
      <point x="420" y="648"/>
      <point x="473" y="601"/>
      <point x="473" y="517" type="curve" smooth="yes"/>
      <point x="473" y="426"/>
      <point x="398" y="380"/>
      <point x="292" y="380" type="curve" smooth="yes"/>
      <point x="178" y="380" type="line"/>
      <point x="178" y="327" type="line"/>
      <point x="283" y="327" type="line"/>
      <point x="360" y="219"/>
      <point x="447" y="114"/>
      <point x="493" y="60" type="curve" smooth="yes"/>
      <point x="524" y="23"/>
      <point x="564" y="-3"/>
    </contour>
  </outline>
</glyph>
<glyph name="S" format="2">
  <advance width="589"/>
  <unicode hex="0053"/>
  <anchor x="295" y="700" name="top"/>
  <anchor x="295" y="0" name="bottom"/>
  <outline>
    <contour>
      <point x="267" y="-16" type="curve" smooth="yes"/>
      <point x="415" y="-16"/>
      <point x="519" y="71"/>
      <point x="519" y="194" type="curve" smooth="yes"/>
      <point x="519" y="395"/>
      <point x="187" y="384"/>
      <point x="187" y="563" type="curve" smooth="yes"/>
      <point x="187" y="633"/>
      <point x="239" y="665"/>
      <point x="305" y="665" type="curve" smooth="yes"/>
      <point x="382" y="665"/>
      <point x="431" y="618"/>
      <point x="448" y="527" type="curve"/>
      <point x="481" y="527" type="line"/>
      <point x="481" y="704" type="line"/>
      <point x="456" y="704" type="line"/>
      <point x="439" y="673" type="line"/>
      <point x="411" y="696"/>
      <point x="357" y="712"/>
      <point x="307" y="712" type="curve" smooth="yes"/>
      <point x="176" y="712"/>
      <point x="83" y="634"/>
      <point x="83" y="524" type="curve" smooth="yes"/>
      <point x="83" y="329"/>
      <point x="414" y="334"/>
      <point x="414" y="148" type="curve" smooth="yes"/>
      <point x="414" y="70"/>
      <point x="353" y="32"/>
      <point x="271" y="32" type="curve" smooth="yes"/>
      <point x="169" y="32"/>
      <point x="113" y="95"/>
      <point x="111" y="209" type="curve"/>
      <point x="60" y="209" type="line"/>
      <point x="60" y="80" type="line"/>
      <point x="101" y="40"/>
      <point x="187" y="-16"/>
    </contour>
  </outline>
</glyph>
<glyph name="T" format="2">
  <advance width="709"/>
  <unicode hex="0054"/>
  <anchor x="355" y="700" name="top"/>
  <anchor x="355" y="0" name="bottom"/>
  <anchor x="355" y="350" name="center"/>
  <outline>
    <contour>
      <point x="218" y="0" type="line"/>
      <point x="519" y="0" type="line"/>
      <point x="519" y="46" type="line"/>
      <point x="508" y="46"/>
      <point x="500" y="46"/>
      <point x="486" y="46" type="curve" smooth="yes"/>
      <point x="472" y="46"/>
      <point x="410" y="50"/>
      <point x="410" y="66" type="curve" smooth="yes"/>
      <point x="410" y="695" type="line"/>
      <point x="310" y="695" type="line"/>
      <point x="310" y="497"/>
      <point x="310" y="104"/>
      <point x="310" y="95" type="curve" smooth="yes"/>
      <point x="310" y="68"/>
      <point x="283" y="42"/>
      <point x="246" y="42" type="curve" smooth="yes"/>
      <point x="218" y="42" type="line"/>
    </contour>
    <contour>
      <point x="658" y="546" type="line"/>
      <point x="694" y="552" type="line"/>
      <point x="678" y="713" type="line"/>
      <point x="634" y="700" type="line"/>
      <point x="67" y="700" type="line"/>
      <point x="32" y="711" type="line"/>
      <point x="14" y="562" type="line"/>
      <point x="48" y="556" type="line"/>
      <point x="87" y="648" type="line"/>
      <point x="613" y="648" type="line"/>
    </contour>
  </outline>
</glyph>
<glyph name="U" format="2">
  <advance width="834"/>
  <unicode hex="0055"/>
  <anchor x="417" y="700" name="top"/>
  <anchor x="417" y="0" name="bottom"/>
  <anchor x="751" y="10" name="ogonek"/>
  <anchor x="814" y="700" name="topright"/>
  <outline>
    <contour>
      <point x="410" y="-11" type="curve" smooth="yes"/>
      <point x="607" y="-11"/>
      <point x="747" y="104"/>
      <point x="747" y="264" type="curve" smooth="yes"/>
      <point x="747" y="465"/>
      <point x="747" y="578"/>
      <point x="747" y="611" type="curve" smooth="yes"/>
      <point x="747" y="642"/>
      <point x="767" y="654"/>
      <point x="800" y="654" type="curve" smooth="yes"/>
      <point x="814" y="654" type="line"/>
      <point x="814" y="699" type="line"/>
      <point x="534" y="699" type="line"/>
      <point x="534" y="654" type="line"/>
      <point x="571" y="654"/>
      <point x="632" y="654"/>
      <point x="645" y="654" type="curve" smooth="yes"/>
      <point x="675" y="654"/>
      <point x="679" y="634"/>
      <point x="679" y="603" type="curve" smooth="yes"/>
      <point x="679" y="578"/>
      <point x="679" y="274"/>
      <point x="679" y="259" type="curve" smooth="yes"/>
      <point x="679" y="136"/>
      <point x="573" y="49"/>
      <point x="424" y="49" type="curve" smooth="yes"/>
      <point x="288" y="49"/>
      <point x="202" y="116"/>
      <point x="202" y="211" type="curve" smooth="yes"/>
      <point x="202" y="277"/>
      <point x="202" y="606"/>
      <point x="202" y="626" type="curve" smooth="yes"/>
      <point x="202" y="656"/>
      <point x="237" y="654"/>
      <point x="267" y="654" type="curve" smooth="yes"/>
      <point x="283" y="654" type="line"/>
      <point x="283" y="699" type="line"/>
      <point x="43" y="699" type="line"/>
      <point x="43" y="654" type="line"/>
      <point x="50" y="654"/>
      <point x="56" y="654"/>
      <point x="65" y="654" type="curve" smooth="yes"/>
      <point x="83" y="654"/>
      <point x="102" y="631"/>
      <point x="102" y="570" type="curve" smooth="yes"/>
      <point x="102" y="514"/>
      <point x="102" y="262"/>
      <point x="102" y="210" type="curve" smooth="yes"/>
      <point x="102" y="80"/>
      <point x="233" y="-11"/>
    </contour>
  </outline>
</glyph>
<glyph name="V" format="2">
  <advance width="734"/>
  <unicode hex="0056"/>
  <anchor x="367" y="700" name="top"/>
  <anchor x="367" y="0" name="bottom"/>
  <outline>
    <contour>
      <point x="93" y="627" type="curve" smooth="yes"/>
      <point x="359" y="-12" type="line"/>
      <point x="393" y="0" type="line"/>
      <point x="622" y="641" type="line" smooth="yes"/>
      <point x="628" y="657"/>
      <point x="651" y="652"/>
      <point x="677" y="652" type="curve" smooth="yes"/>
      <point x="719" y="652" type="line"/>
      <point x="719" y="700" type="line"/>
      <point x="489" y="700" type="line"/>
      <point x="489" y="652" type="line"/>
      <point x="543" y="652" type="line" smooth="yes"/>
      <point x="567" y="652"/>
      <point x="578" y="658"/>
      <point x="572" y="641" type="curve" smooth="yes"/>
      <point x="397" y="150" type="line"/>
      <point x="195" y="621" type="line" smooth="yes"/>
      <point x="182" y="651"/>
      <point x="202" y="655"/>
      <point x="232" y="655" type="curve" smooth="yes"/>
      <point x="284" y="655" type="line"/>
      <point x="284" y="700" type="line"/>
      <point x="14" y="700" type="line"/>
      <point x="14" y="655" type="line"/>
      <point x="48" y="655" type="line" smooth="yes"/>
      <point x="62" y="655"/>
      <point x="81" y="653"/>
    </contour>
  </outline>
</glyph>
<glyph name="W" format="2">
  <advance width="1044"/>
  <unicode hex="0057"/>
  <anchor x="522" y="700" name="top"/>
  <anchor x="522" y="0" name="bottom"/>
  <outline>
    <contour>
      <point x="483" y="627" type="curve"/>
      <point x="689" y="-12" type="line"/>
      <point x="723" y="0" type="line"/>
      <point x="932" y="641" type="line"/>
      <point x="932" y="641"/>
      <point x="961" y="652"/>
      <point x="987" y="652" type="curve" smooth="yes"/>
      <point x="1029" y="652" type="line"/>
      <point x="1029" y="700" type="line"/>
      <point x="842" y="700" type="line"/>
      <point x="842" y="652" type="line"/>
      <point x="853" y="652" type="line" smooth="yes"/>
      <point x="877" y="652"/>
      <point x="884" y="642"/>
      <point x="882" y="641" type="curve"/>
      <point x="736" y="202" type="line"/>
      <point x="592" y="616" type="line" smooth="yes"/>
      <point x="582" y="646"/>
      <point x="592" y="655"/>
      <point x="622" y="655" type="curve" smooth="yes"/>
      <point x="654" y="655" type="line"/>
      <point x="654" y="700" type="line"/>
      <point x="404" y="700" type="line"/>
      <point x="404" y="655" type="line"/>
      <point x="438" y="655" type="line" smooth="yes"/>
      <point x="452" y="655"/>
      <point x="471" y="653"/>
    </contour>
    <contour>
      <point x="93" y="627" type="curve"/>
      <point x="299" y="-12" type="line"/>
      <point x="333" y="0" type="line"/>
      <point x="573" y="655" type="line"/>
      <point x="523" y="655" type="line"/>
      <point x="347" y="199" type="line"/>
      <point x="200" y="621" type="line" smooth="yes"/>
      <point x="190" y="651"/>
      <point x="202" y="655"/>
      <point x="232" y="655" type="curve" smooth="yes"/>
      <point x="264" y="655" type="line"/>
      <point x="264" y="700" type="line"/>
      <point x="14" y="700" type="line"/>
      <point x="14" y="655" type="line"/>
      <point x="48" y="655" type="line" smooth="yes"/>
      <point x="62" y="655"/>
      <point x="81" y="653"/>
    </contour>
  </outline>
</glyph>
<glyph name="X" format="2">
  <advance width="755"/>
  <unicode hex="0058"/>
  <anchor x="378" y="700" name="top"/>
  <anchor x="378" y="0" name="bottom"/>
  <outline>
    <contour>
      <point x="427" y="0" type="line"/>
      <point x="727" y="0" type="line"/>
      <point x="727" y="46" type="line"/>
      <point x="697" y="46" type="line" smooth="yes"/>
      <point x="680" y="46"/>
      <point x="643" y="67"/>
      <point x="623" y="97" type="curve" smooth="yes"/>
      <point x="506" y="277"/>
      <point x="348" y="476"/>
      <point x="237" y="625" type="curve" smooth="yes"/>
      <point x="224" y="643"/>
      <point x="235" y="655"/>
      <point x="262" y="655" type="curve" smooth="yes"/>
      <point x="324" y="655" type="line"/>
      <point x="324" y="700" type="line"/>
      <point x="44" y="700" type="line"/>
      <point x="44" y="655" type="line"/>
      <point x="56" y="655" type="line" smooth="yes"/>
      <point x="77" y="655"/>
      <point x="109" y="645"/>
      <point x="118" y="632" type="curve" smooth="yes"/>
      <point x="151" y="584"/>
      <point x="471" y="132"/>
      <point x="482" y="116" type="curve" smooth="yes"/>
      <point x="516" y="64"/>
      <point x="505" y="46"/>
      <point x="471" y="46" type="curve" smooth="yes"/>
      <point x="427" y="46" type="line"/>
    </contour>
    <contour>
      <point x="23" y="46" type="curve"/>
      <point x="23" y="0" type="line"/>
      <point x="292" y="0" type="line"/>
      <point x="292" y="46" type="line"/>
      <point x="283" y="46"/>
      <point x="284" y="46"/>
      <point x="265" y="46" type="curve" smooth="yes"/>
      <point x="205" y="46"/>
      <point x="182" y="59"/>
      <point x="210" y="104" type="curve" smooth="yes"/>
      <point x="217" y="115"/>
      <point x="302" y="206"/>
      <point x="407" y="337" type="curve"/>
      <point x="371" y="378" type="line"/>
      <point x="309" y="299"/>
      <point x="216" y="184"/>
      <point x="136" y="88" type="curve" smooth="yes"/>
      <point x="115" y="63"/>
      <point x="68" y="46"/>
    </contour>
    <contour>
      <point x="371" y="368" type="curve"/>
      <point x="407" y="327" type="line"/>
      <point x="648" y="634" type="line" smooth="yes"/>
      <point x="659" y="648"/>
      <point x="675" y="655"/>
      <point x="690" y="655" type="curve" smooth="yes"/>
      <point x="731" y="655" type="line"/>
      <point x="731" y="700" type="line"/>
      <point x="460" y="700" type="line"/>
      <point x="460" y="655" type="line"/>
      <point x="474" y="655"/>
      <point x="485" y="655"/>
      <point x="535" y="655" type="curve" smooth="yes"/>
      <point x="570" y="655"/>
      <point x="579" y="633"/>
      <point x="541" y="579" type="curve" smooth="yes"/>
      <point x="507" y="530"/>
      <point x="491" y="529"/>
    </contour>
  </outline>
</glyph>
<glyph name="Y" format="2">
  <advance width="656"/>
  <unicode hex="0059"/>
  <anchor x="328" y="700" name="top"/>
  <anchor x="328" y="0" name="bottom"/>
  <anchor x="20" y="700" name="topleft"/>
  <outline>
    <contour>
      <point x="94" y="649" type="curve"/>
      <point x="276" y="292" type="line"/>
      <point x="370" y="319" type="line"/>
      <point x="207" y="632" type="line" smooth="yes"/>
      <point x="194" y="660"/>
      <point x="207" y="655"/>
      <point x="235" y="655" type="curve" smooth="yes"/>
      <point x="324" y="655" type="line"/>
      <point x="324" y="700" type="line"/>
      <point x="14" y="700" type="line"/>
      <point x="14" y="655" type="line"/>
      <point x="56" y="655" type="line" smooth="yes"/>
      <point x="67" y="655"/>
      <point x="85" y="662"/>
    </contour>
    <contour>
      <point x="178" y="0" type="line"/>
      <point x="479" y="0" type="line"/>
      <point x="479" y="46" type="line"/>
      <point x="446" y="46" type="line" smooth="yes"/>
      <point x="432" y="46"/>
      <point x="370" y="50"/>
      <point x="370" y="66" type="curve" smooth="yes"/>
      <point x="370" y="314" type="line"/>
      <point x="270" y="314" type="line"/>
      <point x="270" y="95" type="line" smooth="yes"/>
      <point x="270" y="68"/>
      <point x="243" y="42"/>
      <point x="206" y="42" type="curve" smooth="yes"/>
      <point x="178" y="42" type="line"/>
    </contour>
    <contour>
      <point x="495" y="630" type="curve" smooth="yes"/>
      <point x="307" y="314" type="line"/>
      <point x="370" y="314" type="line"/>
      <point x="558" y="634" type="line"/>
      <point x="568" y="646"/>
      <point x="585" y="655"/>
      <point x="600" y="655" type="curve" smooth="yes"/>
      <point x="641" y="655" type="line"/>
      <point x="641" y="700" type="line"/>
      <point x="430" y="700" type="line"/>
      <point x="430" y="655" type="line"/>
      <point x="485" y="655" type="line" smooth="yes"/>
      <point x="503" y="655"/>
      <point x="511" y="655"/>
    </contour>
  </outline>
</glyph>
<glyph name="Z" format="2">
  <advance width="710"/>
  <unicode hex="005A"/>
  <anchor x="355" y="700" name="top"/>
  <anchor x="355" y="0" name="bottom"/>
  <anchor x="355" y="350" name="center"/>
  <outline>
    <contour>
      <point x="50" y="0" type="curve"/>
      <point x="300" y="0" type="line"/>
      <point x="300" y="53" type="line"/>
      <point x="231" y="53" type="line" smooth="yes"/>
      <point x="207" y="53"/>
      <point x="201" y="52"/>
      <point x="217" y="77" type="curve" smooth="yes"/>
      <point x="610" y="649" type="line"/>
      <point x="610" y="700" type="line"/>
      <point x="139" y="700" type="line"/>
      <point x="81" y="482" type="line"/>
      <point x="134" y="476" type="line"/>
      <point x="181" y="587"/>
      <point x="218" y="648"/>
      <point x="247" y="648" type="curve" smooth="yes"/>
      <point x="465" y="648" type="line" smooth="yes"/>
      <point x="489" y="648"/>
      <point x="495" y="650"/>
      <point x="479" y="628" type="curve" smooth="yes"/>
      <point x="396" y="516"/>
      <point x="219" y="256"/>
    </contour>
    <contour>
      <point x="87" y="0" type="line"/>
      <point x="595" y="0" type="line"/>
      <point x="643" y="212" type="line"/>
      <point x="595" y="219" type="line"/>
      <point x="564" y="141"/>
      <point x="518" y="53"/>
      <point x="458" y="53" type="curve" smooth="yes"/>
      <point x="87" y="53" type="line"/>
    </contour>
  </outline>
</glyph>
<glyph name="a" format="2">
  <advance width="460"/>
  <unicode hex="0061"/>
  <anchor x="230" y="453" name="top"/>
  <anchor x="230" y="0" name="bottom"/>
  <anchor x="414" y="10" name="ogonek"/>
  <outline>
    <contour>
      <point x="330" y="-12" type="curve" smooth="yes"/>
      <point x="396" y="-12"/>
      <point x="443" y="17"/>
      <point x="443" y="59" type="curve" smooth="yes"/>
      <point x="443" y="76" type="line"/>
      <point x="415" y="76" type="line"/>
      <point x="415" y="60"/>
      <point x="412" y="48"/>
      <point x="396" y="48" type="curve" smooth="yes"/>
      <point x="377" y="48"/>
      <point x="363" y="65"/>
      <point x="363" y="89" type="curve" smooth="yes"/>
      <point x="363" y="121"/>
      <point x="363" y="323"/>
      <point x="363" y="359" type="curve" smooth="yes"/>
      <point x="363" y="421"/>
      <point x="315" y="465"/>
      <point x="247" y="465" type="curve" smooth="yes"/>
      <point x="210" y="465"/>
      <point x="159" y="445"/>
      <point x="125" y="417" type="curve" smooth="yes"/>
      <point x="82" y="380"/>
      <point x="51" y="337"/>
      <point x="51" y="313" type="curve" smooth="yes"/>
      <point x="51" y="291"/>
      <point x="68" y="276"/>
      <point x="92" y="276" type="curve" smooth="yes"/>
      <point x="115" y="276"/>
      <point x="132" y="289"/>
      <point x="132" y="308" type="curve" smooth="yes"/>
      <point x="132" y="330"/>
      <point x="116" y="313"/>
      <point x="116" y="337" type="curve" smooth="yes"/>
      <point x="116" y="363"/>
      <point x="153" y="382"/>
      <point x="206" y="382" type="curve" smooth="yes"/>
      <point x="248" y="382"/>
      <point x="278" y="370"/>
      <point x="278" y="327" type="curve" smooth="yes"/>
      <point x="278" y="266"/>
      <point x="278" y="93"/>
      <point x="278" y="64" type="curve" smooth="yes"/>
      <point x="278" y="19"/>
      <point x="300" y="-12"/>
    </contour>
    <contour>
      <point x="138" y="-12" type="curve" smooth="yes"/>
      <point x="177" y="-12"/>
      <point x="253" y="15"/>
      <point x="302" y="58" type="curve"/>
      <point x="302" y="99" type="line"/>
      <point x="269" y="57"/>
      <point x="222" y="53"/>
      <point x="210" y="53" type="curve" smooth="yes"/>
      <point x="163" y="53"/>
      <point x="144" y="64"/>
      <point x="144" y="101" type="curve" smooth="yes"/>
      <point x="144" y="128"/>
      <point x="156" y="150"/>
      <point x="181" y="163" type="curve"/>
      <point x="317" y="223" type="line"/>
      <point x="319" y="269" type="line"/>
      <point x="106" y="175" type="line" smooth="yes"/>
      <point x="73" y="159"/>
      <point x="50" y="118"/>
      <point x="50" y="85" type="curve" smooth="yes"/>
      <point x="50" y="29"/>
      <point x="78" y="-12"/>
    </contour>
  </outline>
</glyph>
<glyph name="b" format="2">
  <advance width="558"/>
  <unicode hex="0062"/>
  <anchor x="279" y="453" name="top"/>
  <anchor x="279" y="0" name="bottom"/>
  <anchor x="140" y="560" name="center"/>
  <outline>
    <contour>
      <point x="247" y="-12" type="curve" smooth="yes"/>
      <point x="405" y="-12"/>
      <point x="516" y="115"/>
      <point x="516" y="269" type="curve" smooth="yes"/>
      <point x="516" y="384"/>
      <point x="426" y="466"/>
      <point x="298" y="466" type="curve" smooth="yes"/>
      <point x="242" y="466"/>
      <point x="173" y="448"/>
      <point x="131" y="422" type="curve"/>
      <point x="139" y="372" type="line"/>
      <point x="173" y="394"/>
      <point x="223" y="410"/>
      <point x="258" y="410" type="curve" smooth="yes"/>
      <point x="350" y="410"/>
      <point x="418" y="353"/>
      <point x="418" y="245" type="curve" smooth="yes"/>
      <point x="418" y="128"/>
      <point x="361" y="46"/>
      <point x="285" y="46" type="curve" smooth="yes"/>
      <point x="218" y="46"/>
      <point x="153" y="88"/>
      <point x="129" y="147" type="curve"/>
      <point x="79" y="46" type="line"/>
      <point x="107" y="12"/>
      <point x="177" y="-12"/>
    </contour>
    <contour>
      <point x="79" y="46" type="curve"/>
      <point x="168" y="26" type="line"/>
      <point x="168" y="636" type="line"/>
      <point x="176" y="700" type="line"/>
      <point x="165" y="708" type="line"/>
      <point x="118" y="690"/>
      <point x="72" y="675"/>
      <point x="25" y="663" type="curve"/>
      <point x="25" y="630" type="line"/>
      <point x="62" y="630"/>
      <point x="87" y="611"/>
      <point x="87" y="585" type="curve" smooth="yes"/>
      <point x="91" y="451"/>
      <point x="87" y="318"/>
      <point x="87" y="149" type="curve" smooth="yes"/>
      <point x="87" y="100"/>
      <point x="84" y="58"/>
    </contour>
  </outline>
</glyph>
<glyph name="c" format="2">
  <advance width="439"/>
  <unicode hex="0063"/>
  <anchor x="220" y="453" name="top"/>
  <anchor x="220" y="0" name="bottom"/>
  <outline>
    <contour>
      <point x="229" y="-12" type="curve" smooth="yes"/>
      <point x="291" y="-12"/>
      <point x="372" y="30"/>
      <point x="424" y="90" type="curve"/>
      <point x="404" y="128" type="line"/>
      <point x="372" y="95"/>
      <point x="321" y="72"/>
      <point x="280" y="72" type="curve" smooth="yes"/>
      <point x="186" y="72"/>
      <point x="120" y="128"/>
      <point x="120" y="233" type="curve" smooth="yes"/>
      <point x="120" y="351"/>
      <point x="170" y="409"/>
      <point x="240" y="409" type="curve" smooth="yes"/>
      <point x="323" y="409"/>
      <point x="300" y="358"/>
      <point x="345" y="358" type="curve" smooth="yes"/>
      <point x="376" y="358"/>
      <point x="398" y="373"/>
      <point x="398" y="394" type="curve" smooth="yes"/>
      <point x="398" y="436"/>
      <point x="353" y="465"/>
      <point x="289" y="465" type="curve" smooth="yes"/>
      <point x="144" y="465"/>
      <point x="41" y="356"/>
      <point x="41" y="192" type="curve" smooth="yes"/>
      <point x="41" y="73"/>
      <point x="119" y="-12"/>
    </contour>
  </outline>
</glyph>
<glyph name="d" format="2">
  <advance width="560"/>
  <unicode hex="0064"/>
  <anchor x="280" y="453" name="top"/>
  <anchor x="280" y="0" name="bottom"/>
  <anchor x="420" y="560" name="center"/>
  <anchor x="540" y="700" name="topright"/>
  <outline>
    <contour>
      <point x="395" y="-12" type="line"/>
      <point x="561" y="7" type="line"/>
      <point x="558" y="54" type="line"/>
      <point x="536" y="50"/>
      <point x="511" y="47"/>
      <point x="496" y="47" type="curve" smooth="yes"/>
      <point x="479" y="47"/>
      <point x="467" y="60"/>
      <point x="467" y="82" type="curve" smooth="yes"/>
      <point x="462" y="290"/>
      <point x="462" y="463"/>
      <point x="467" y="636" type="curve" smooth="yes"/>
      <point x="470" y="700" type="line"/>
      <point x="463" y="708" type="line"/>
      <point x="314" y="700" type="line"/>
      <point x="314" y="656" type="line"/>
      <point x="316" y="656"/>
      <point x="328" y="656"/>
      <point x="330" y="656" type="curve" smooth="yes"/>
      <point x="363" y="656"/>
      <point x="381" y="639"/>
      <point x="381" y="614" type="curve" smooth="yes"/>
      <point x="381" y="48" type="line"/>
      <point x="393" y="0" type="line"/>
    </contour>
    <contour>
      <point x="278" y="-12" type="curve" smooth="yes"/>
      <point x="345" y="-12"/>
      <point x="407" y="33"/>
      <point x="428" y="96" type="curve"/>
      <point x="427" y="203" type="line"/>
      <point x="415" y="112"/>
      <point x="358" y="38"/>
      <point x="290" y="38" type="curve" smooth="yes"/>
      <point x="201" y="38"/>
      <point x="138" y="123"/>
      <point x="138" y="244" type="curve" smooth="yes"/>
      <point x="138" y="356"/>
      <point x="194" y="417"/>
      <point x="272" y="417" type="curve" smooth="yes"/>
      <point x="323" y="417"/>
      <point x="379" y="361"/>
      <point x="406" y="311" type="curve"/>
      <point x="406" y="425" type="line"/>
      <point x="376" y="448"/>
      <point x="326" y="465"/>
      <point x="284" y="465" type="curve" smooth="yes"/>
      <point x="142" y="465"/>
      <point x="41" y="371"/>
      <point x="41" y="219" type="curve" smooth="yes"/>
      <point x="41" y="84"/>
      <point x="139" y="-12"/>
    </contour>
  </outline>
</glyph>
<glyph name="e" format="2">
  <advance width="463"/>
  <unicode hex="0065"/>
  <anchor x="232" y="453" name="top"/>
  <anchor x="232" y="0" name="bottom"/>
  <anchor x="417" y="10" name="ogonek"/>
  <outline>
    <contour>
      <point x="226" y="-13" type="curve" smooth="yes"/>
      <point x="290" y="-13"/>
      <point x="372" y="30"/>
      <point x="424" y="90" type="curve"/>
      <point x="404" y="128" type="line"/>
      <point x="373" y="96"/>
      <point x="324" y="73"/>
      <point x="286" y="73" type="curve" smooth="yes"/>
      <point x="188" y="73"/>
      <point x="119" y="130"/>
      <point x="119" y="237" type="curve" smooth="yes"/>
      <point x="119" y="342"/>
      <point x="175" y="417"/>
      <point x="255" y="417" type="curve" smooth="yes"/>
      <point x="298" y="417"/>
      <point x="329" y="381"/>
      <point x="329" y="331" type="curve" smooth="yes"/>
      <point x="329" y="323"/>
      <point x="326" y="311"/>
      <point x="322" y="303" type="curve"/>
      <point x="90" y="303" type="line"/>
      <point x="90" y="256" type="line"/>
      <point x="192" y="256"/>
      <point x="369" y="256"/>
      <point x="411" y="256" type="curve" smooth="yes"/>
      <point x="422" y="256"/>
      <point x="430" y="282"/>
      <point x="430" y="295" type="curve" smooth="yes"/>
      <point x="430" y="384"/>
      <point x="356" y="465"/>
      <point x="252" y="465" type="curve" smooth="yes"/>
      <point x="128" y="465"/>
      <point x="41" y="351"/>
      <point x="41" y="216" type="curve" smooth="yes"/>
      <point x="41" y="82"/>
      <point x="118" y="-13"/>
    </contour>
  </outline>
</glyph>
<glyph name="f" format="2">
  <advance width="317"/>
  <unicode hex="0066"/>
  <anchor x="159" y="700" name="top"/>
  <anchor x="159" y="0" name="bottom"/>
  <outline>
    <contour>
      <point x="10" y="0" type="line"/>
      <point x="266" y="0" type="line"/>
      <point x="266" y="46" type="line"/>
      <point x="257" y="46"/>
      <point x="256" y="46"/>
      <point x="219" y="46" type="curve" smooth="yes"/>
      <point x="197" y="46"/>
      <point x="186" y="59"/>
      <point x="186" y="77" type="curve" smooth="yes"/>
      <point x="186" y="108"/>
      <point x="186" y="515"/>
      <point x="186" y="549" type="curve" smooth="yes"/>
      <point x="186" y="622"/>
      <point x="201" y="655"/>
      <point x="229" y="679" type="curve" smooth="yes"/>
      <point x="243" y="691"/>
      <point x="268" y="699"/>
      <point x="290" y="699" type="curve" smooth="yes"/>
      <point x="342" y="699"/>
      <point x="321" y="650"/>
      <point x="369" y="650" type="curve" smooth="yes"/>
      <point x="394" y="650"/>
      <point x="445" y="676"/>
      <point x="445" y="713" type="curve" smooth="yes"/>
      <point x="445" y="752"/>
      <point x="409" y="779"/>
      <point x="357" y="779" type="curve" smooth="yes"/>
      <point x="316" y="779"/>
      <point x="248" y="746"/>
      <point x="193" y="699" type="curve" smooth="yes"/>
      <point x="140" y="655"/>
      <point x="103" y="600"/>
      <point x="103" y="530" type="curve" smooth="yes"/>
      <point x="103" y="467"/>
      <point x="72" y="422"/>
      <point x="27" y="422" type="curve" smooth="yes"/>
      <point x="15" y="422" type="line"/>
      <point x="15" y="376" type="line"/>
      <point x="100" y="376" type="line"/>
      <point x="105" y="276"/>
      <point x="105" y="195"/>
      <point x="100" y="95" type="curve" smooth="yes"/>
      <point x="100" y="66"/>
      <point x="81" y="46"/>
      <point x="55" y="46" type="curve" smooth="yes"/>
      <point x="10" y="46" type="line"/>
    </contour>
    <contour>
      <point x="170" y="376" type="line"/>
      <point x="303" y="376" type="line"/>
      <point x="303" y="453" type="line"/>
      <point x="170" y="453" type="line"/>
    </contour>
  </outline>
</glyph>
<glyph name="g" format="2">
  <advance width="515"/>
  <unicode hex="0067"/>
  <anchor x="258" y="453" name="top"/>
  <anchor x="258" y="-150" name="bottom"/>
  <outline>
    <contour>
      <point x="241" y="-316" type="curve" smooth="yes"/>
      <point x="392" y="-316"/>
      <point x="499" y="-220"/>
      <point x="499" y="-84" type="curve" smooth="yes"/>
      <point x="499" y="-2"/>
      <point x="426" y="56"/>
      <point x="322" y="56" type="curve" smooth="yes"/>
      <point x="257" y="56"/>
      <point x="200" y="56"/>
      <point x="180" y="56" type="curve" smooth="yes"/>
      <point x="146" y="56"/>
      <point x="122" y="88"/>
      <point x="122" y="108" type="curve" smooth="yes"/>
      <point x="122" y="122"/>
      <point x="148" y="144"/>
      <point x="184" y="160" type="curve"/>
      <point x="159" y="189" type="line"/>
      <point x="95" y="159"/>
      <point x="50" y="111"/>
      <point x="50" y="74" type="curve" smooth="yes"/>
      <point x="50" y="30"/>
      <point x="84" y="-19"/>
      <point x="131" y="-19" type="curve" smooth="yes"/>
      <point x="190" y="-19"/>
      <point x="312" y="-19"/>
      <point x="339" y="-19" type="curve" smooth="yes"/>
      <point x="392" y="-19"/>
      <point x="425" y="-47"/>
      <point x="425" y="-86" type="curve" smooth="yes"/>
      <point x="425" y="-195"/>
      <point x="359" y="-271"/>
      <point x="259" y="-271" type="curve" smooth="yes"/>
      <point x="173" y="-271"/>
      <point x="116" y="-220"/>
      <point x="116" y="-147" type="curve" smooth="yes"/>
      <point x="116" y="-98"/>
      <point x="162" y="-38"/>
      <point x="235" y="-1" type="curve"/>
      <point x="175" y="-1" type="line"/>
      <point x="175" y="7" type="line"/>
      <point x="85" y="-32"/>
      <point x="21" y="-107"/>
      <point x="21" y="-174" type="curve" smooth="yes"/>
      <point x="21" y="-257"/>
      <point x="112" y="-316"/>
    </contour>
    <contour>
      <point x="258" y="140" type="curve" smooth="yes"/>
      <point x="357" y="140"/>
      <point x="426" y="208"/>
      <point x="426" y="303" type="curve" smooth="yes"/>
      <point x="426" y="397"/>
      <point x="353" y="464"/>
      <point x="249" y="464" type="curve" smooth="yes"/>
      <point x="148" y="464"/>
      <point x="76" y="392"/>
      <point x="76" y="290" type="curve" smooth="yes"/>
      <point x="76" y="202"/>
      <point x="151" y="140"/>
    </contour>
    <contour>
      <point x="260" y="184" type="curve" smooth="yes"/>
      <point x="203" y="184"/>
      <point x="162" y="234"/>
      <point x="162" y="328" type="curve" smooth="yes"/>
      <point x="162" y="392"/>
      <point x="195" y="418"/>
      <point x="242" y="418" type="curve" smooth="yes"/>
      <point x="297" y="418"/>
      <point x="336" y="373"/>
      <point x="336" y="283" type="curve" smooth="yes"/>
      <point x="336" y="215"/>
      <point x="304" y="184"/>
    </contour>
    <contour>
      <point x="496" y="352" type="line"/>
      <point x="503" y="422" type="line"/>
      <point x="482" y="422"/>
      <point x="387" y="393"/>
      <point x="363" y="393" type="curve"/>
      <point x="371" y="338" type="line"/>
    </contour>
  </outline>
</glyph>
<glyph name="h" format="2">
  <advance width="568"/>
  <unicode hex="0068"/>
  <anchor x="284" y="700" name="top"/>
  <anchor x="284" y="0" name="bottom"/>
  <anchor x="142" y="560" name="center"/>
  <outline>
    <contour>
      <point x="315" y="1" type="line"/>
      <point x="557" y="1" type="line"/>
      <point x="557" y="49" type="line"/>
      <point x="547" y="49"/>
      <point x="502" y="49"/>
      <point x="496" y="49" type="curve" smooth="yes"/>
      <point x="482" y="49"/>
      <point x="472" y="66"/>
      <point x="472" y="81" type="curve" smooth="yes"/>
      <point x="472" y="125"/>
      <point x="469" y="315"/>
      <point x="469" y="360" type="curve" smooth="yes"/>
      <point x="469" y="421"/>
      <point x="418" y="464"/>
      <point x="345" y="464" type="curve" smooth="yes"/>
      <point x="281" y="464"/>
      <point x="195" y="425"/>
      <point x="137" y="370" type="curve"/>
      <point x="148" y="327" type="line"/>
      <point x="182" y="360"/>
      <point x="242" y="383"/>
      <point x="294" y="383" type="curve" smooth="yes"/>
      <point x="348" y="383"/>
      <point x="387" y="370"/>
      <point x="387" y="327" type="curve"/>
      <point x="392" y="252"/>
      <point x="392" y="187"/>
      <point x="387" y="112" type="curve"/>
      <point x="387" y="74"/>
      <point x="372" y="44"/>
      <point x="352" y="44" type="curve" smooth="yes"/>
      <point x="315" y="44" type="line"/>
    </contour>
    <contour>
      <point x="26" y="0" type="line"/>
      <point x="256" y="0" type="line"/>
      <point x="256" y="44" type="line"/>
      <point x="243" y="44"/>
      <point x="227" y="44"/>
      <point x="218" y="44" type="curve" smooth="yes"/>
      <point x="194" y="44"/>
      <point x="176" y="64"/>
      <point x="176" y="92" type="curve" smooth="yes"/>
      <point x="181" y="632" type="line"/>
      <point x="185" y="700" type="line"/>
      <point x="180" y="708" type="line"/>
      <point x="137" y="691"/>
      <point x="74" y="673"/>
      <point x="34" y="663" type="curve"/>
      <point x="34" y="630" type="line"/>
      <point x="70" y="630"/>
      <point x="94" y="612"/>
      <point x="94" y="587" type="curve" smooth="yes"/>
      <point x="99" y="420"/>
      <point x="99" y="274"/>
      <point x="94" y="100" type="curve" smooth="yes"/>
      <point x="94" y="67"/>
      <point x="79" y="44"/>
      <point x="56" y="44" type="curve" smooth="yes"/>
      <point x="26" y="44" type="line"/>
    </contour>
  </outline>
</glyph>
<glyph name="i" format="2">
  <advance width="279"/>
  <unicode hex="0069"/>
  <anchor x="140" y="0" name="bottom"/>
  <outline>
    <contour>
      <point x="43" y="0" type="line"/>
      <point x="251" y="0" type="line"/>
      <point x="251" y="46" type="line"/>
      <point x="243" y="46"/>
      <point x="213" y="46"/>
      <point x="206" y="46" type="curve" smooth="yes"/>
      <point x="190" y="46"/>
      <point x="183" y="58"/>
      <point x="183" y="75" type="curve" smooth="yes"/>
      <point x="183" y="370" type="line"/>
      <point x="182" y="453" type="line"/>
      <point x="173" y="469" type="line"/>
      <point x="136" y="446"/>
      <point x="82" y="423"/>
      <point x="41" y="414" type="curve"/>
      <point x="41" y="378" type="line"/>
      <point x="74" y="378"/>
      <point x="98" y="356"/>
      <point x="98" y="324" type="curve" smooth="yes"/>
      <point x="103" y="234"/>
      <point x="103" y="161"/>
      <point x="98" y="71" type="curve" smooth="yes"/>
      <point x="98" y="56"/>
      <point x="83" y="46"/>
      <point x="62" y="46" type="curve" smooth="yes"/>
      <point x="43" y="46" type="line"/>
    </contour>
    <contour>
      <point x="138" y="584" type="curve" smooth="yes"/>
      <point x="173" y="584"/>
      <point x="200" y="608"/>
      <point x="200" y="641" type="curve" smooth="yes"/>
      <point x="200" y="674"/>
      <point x="173" y="698"/>
      <point x="138" y="698" type="curve" smooth="yes"/>
      <point x="103" y="698"/>
      <point x="76" y="674"/>
      <point x="76" y="641" type="curve" smooth="yes"/>
      <point x="76" y="608"/>
      <point x="103" y="584"/>
    </contour>
  </outline>
</glyph>
<glyph name="j" format="2">
  <advance width="270"/>
  <unicode hex="006A"/>
  <outline>
    <contour>
      <point x="-26" y="-215" type="curve"/>
      <point x="-1" y="-262" type="line"/>
      <point x="104" y="-180"/>
      <point x="183" y="-76"/>
      <point x="183" y="-11" type="curve" smooth="yes"/>
      <point x="183" y="36"/>
      <point x="183" y="390"/>
      <point x="183" y="408" type="curve" smooth="yes"/>
      <point x="181" y="453" type="line"/>
      <point x="178" y="461" type="line"/>
      <point x="40" y="423" type="line"/>
      <point x="43" y="392" type="line"/>
      <point x="75" y="392"/>
      <point x="98" y="375"/>
      <point x="98" y="351" type="curve" smooth="yes"/>
      <point x="103" y="224"/>
      <point x="103" y="116"/>
      <point x="98" y="-11" type="curve" smooth="yes"/>
      <point x="98" y="-69"/>
      <point x="47" y="-154"/>
    </contour>
    <contour>
      <point x="132" y="561" type="curve" smooth="yes"/>
      <point x="163" y="561"/>
      <point x="189" y="586"/>
      <point x="189" y="616" type="curve" smooth="yes"/>
      <point x="189" y="644"/>
      <point x="163" y="669"/>
      <point x="132" y="669" type="curve" smooth="yes"/>
      <point x="101" y="669"/>
      <point x="75" y="644"/>
      <point x="75" y="616" type="curve" smooth="yes"/>
      <point x="75" y="586"/>
      <point x="101" y="561"/>
    </contour>
  </outline>
</glyph>
<glyph name="k" format="2">
  <advance width="530"/>
  <unicode hex="006B"/>
  <anchor x="265" y="700" name="top"/>
  <anchor x="265" y="0" name="bottom"/>
  <outline>
    <contour>
      <point x="32" y="0" type="line"/>
      <point x="262" y="0" type="line"/>
      <point x="262" y="44" type="line"/>
      <point x="249" y="44"/>
      <point x="233" y="44"/>
      <point x="224" y="44" type="curve" smooth="yes"/>
      <point x="200" y="44"/>
      <point x="183" y="64"/>
      <point x="183" y="92" type="curve" smooth="yes"/>
      <point x="183" y="632" type="line"/>
      <point x="185" y="700" type="line"/>
      <point x="180" y="708" type="line"/>
      <point x="137" y="691"/>
      <point x="80" y="673"/>
      <point x="40" y="663" type="curve"/>
      <point x="40" y="630" type="line"/>
      <point x="76" y="630"/>
      <point x="102" y="612"/>
      <point x="102" y="587" type="curve" smooth="yes"/>
      <point x="107" y="413"/>
      <point x="107" y="274"/>
      <point x="102" y="100" type="curve" smooth="yes"/>
      <point x="102" y="67"/>
      <point x="85" y="44"/>
      <point x="62" y="44" type="curve" smooth="yes"/>
      <point x="32" y="44" type="line"/>
    </contour>
    <contour>
      <point x="292" y="0" type="line"/>
      <point x="525" y="0" type="line"/>
      <point x="525" y="46" type="line"/>
      <point x="520" y="46"/>
      <point x="505" y="46"/>
      <point x="500" y="46" type="curve" smooth="yes"/>
      <point x="495" y="46"/>
      <point x="455" y="53"/>
      <point x="424" y="89" type="curve" smooth="yes"/>
      <point x="259" y="280" type="line"/>
      <point x="205" y="239" type="line"/>
      <point x="253" y="182"/>
      <point x="296" y="139"/>
      <point x="336" y="74" type="curve" smooth="yes"/>
      <point x="356" y="42"/>
      <point x="341" y="46"/>
      <point x="327" y="46" type="curve" smooth="yes"/>
      <point x="292" y="46" type="line"/>
    </contour>
    <contour>
      <point x="146" y="150" type="line"/>
      <point x="396" y="344" type="line" smooth="yes"/>
      <point x="429" y="370"/>
      <point x="512" y="407"/>
      <point x="525" y="407" type="curve"/>
      <point x="525" y="453" type="line"/>
      <point x="326" y="453" type="line"/>
      <point x="326" y="407" type="line"/>
      <point x="332" y="407" type="line" smooth="yes"/>
      <point x="351" y="407"/>
      <point x="391" y="399"/>
      <point x="343" y="362" type="curve" smooth="yes"/>
      <point x="146" y="211" type="line"/>
    </contour>
  </outline>
</glyph>
<glyph name="l" format="2">
  <advance width="274"/>
  <unicode hex="006C"/>
  <anchor x="137" y="700" name="top"/>
  <anchor x="137" y="0" name="bottom"/>
  <anchor x="137" y="227" name="center"/>
  <anchor x="254" y="700" name="topright"/>
  <outline>
    <contour>
      <point x="13" y="-1" type="line"/>
      <point x="272" y="-1" type="line"/>
      <point x="272" y="45" type="line"/>
      <point x="251" y="45" type="line" smooth="yes"/>
      <point x="208" y="45"/>
      <point x="178" y="69"/>
      <point x="178" y="104" type="curve" smooth="yes"/>
      <point x="183" y="647" type="line"/>
      <point x="186" y="700" type="line"/>
      <point x="181" y="708" type="line"/>
      <point x="30" y="663" type="line"/>
      <point x="30" y="630" type="line"/>
      <point x="67" y="630"/>
      <point x="93" y="611"/>
      <point x="93" y="584" type="curve" smooth="yes"/>
      <point x="98" y="404"/>
      <point x="98" y="258"/>
      <point x="93" y="78" type="curve" smooth="yes"/>
      <point x="93" y="59"/>
      <point x="72" y="45"/>
      <point x="42" y="45" type="curve" smooth="yes"/>
      <point x="13" y="45" type="line"/>
    </contour>
  </outline>
</glyph>
<glyph name="m" format="2">
  <advance width="865"/>
  <unicode hex="006D"/>
  <anchor x="433" y="453" name="top"/>
  <anchor x="433" y="0" name="bottom"/>
  <outline>
    <contour>
      <point x="613" y="1" type="line"/>
      <point x="855" y="1" type="line"/>
      <point x="855" y="51" type="line"/>
      <point x="794" y="51" type="line" smooth="yes"/>
      <point x="780" y="51"/>
      <point x="770" y="66"/>
      <point x="770" y="81" type="curve" smooth="yes"/>
      <point x="770" y="125"/>
      <point x="767" y="316"/>
      <point x="767" y="361" type="curve" smooth="yes"/>
      <point x="767" y="422"/>
      <point x="716" y="465"/>
      <point x="643" y="465" type="curve" smooth="yes"/>
      <point x="579" y="465"/>
      <point x="493" y="426"/>
      <point x="435" y="371" type="curve"/>
      <point x="446" y="328" type="line"/>
      <point x="480" y="361"/>
      <point x="540" y="384"/>
      <point x="592" y="384" type="curve" smooth="yes"/>
      <point x="646" y="384"/>
      <point x="678" y="371"/>
      <point x="685" y="328" type="curve" smooth="yes"/>
      <point x="690" y="298"/>
      <point x="690" y="151"/>
      <point x="685" y="112" type="curve" smooth="yes"/>
      <point x="680" y="74"/>
      <point x="670" y="46"/>
      <point x="650" y="46" type="curve" smooth="yes"/>
      <point x="613" y="46" type="line"/>
    </contour>
    <contour>
      <point x="30" y="0" type="line"/>
      <point x="260" y="0" type="line"/>
      <point x="260" y="46" type="line"/>
      <point x="222" y="46" type="line" smooth="yes"/>
      <point x="198" y="46"/>
      <point x="179" y="64"/>
      <point x="179" y="92" type="curve" smooth="yes"/>
      <point x="179" y="400" type="line"/>
      <point x="183" y="453" type="line"/>
      <point x="168" y="469" type="line"/>
      <point x="151" y="454"/>
      <point x="106" y="433"/>
      <point x="59" y="420" type="curve"/>
      <point x="59" y="388" type="line"/>
      <point x="83" y="378"/>
      <point x="99" y="360"/>
      <point x="100" y="344" type="curve" smooth="yes"/>
      <point x="105" y="279"/>
      <point x="105" y="145"/>
      <point x="100" y="100" type="curve" smooth="yes"/>
      <point x="96" y="67"/>
      <point x="83" y="46"/>
      <point x="60" y="46" type="curve" smooth="yes"/>
      <point x="30" y="46" type="line"/>
    </contour>
    <contour>
      <point x="319" y="1" type="line"/>
      <point x="554" y="1" type="line"/>
      <point x="554" y="46" type="line"/>
      <point x="500" y="46" type="line" smooth="yes"/>
      <point x="486" y="46"/>
      <point x="476" y="66"/>
      <point x="476" y="81" type="curve" smooth="yes"/>
      <point x="476" y="125"/>
      <point x="473" y="316"/>
      <point x="473" y="361" type="curve" smooth="yes"/>
      <point x="473" y="422"/>
      <point x="422" y="465"/>
      <point x="349" y="465" type="curve" smooth="yes"/>
      <point x="285" y="465"/>
      <point x="199" y="426"/>
      <point x="141" y="371" type="curve"/>
      <point x="152" y="328" type="line"/>
      <point x="186" y="361"/>
      <point x="246" y="384"/>
      <point x="298" y="384" type="curve" smooth="yes"/>
      <point x="352" y="384"/>
      <point x="384" y="371"/>
      <point x="391" y="328" type="curve" smooth="yes"/>
      <point x="396" y="298"/>
      <point x="396" y="151"/>
      <point x="391" y="112" type="curve" smooth="yes"/>
      <point x="386" y="74"/>
      <point x="376" y="46"/>
      <point x="356" y="46" type="curve" smooth="yes"/>
      <point x="319" y="46" type="line"/>
    </contour>
  </outline>
</glyph>
<glyph name="n" format="2">
  <advance width="571"/>
  <unicode hex="006E"/>
  <anchor x="286" y="453" name="top"/>
  <anchor x="286" y="0" name="bottom"/>
  <outline>
    <contour>
      <point x="319" y="1" type="line"/>
      <point x="561" y="1" type="line"/>
      <point x="561" y="51" type="line"/>
      <point x="500" y="51" type="line" smooth="yes"/>
      <point x="486" y="51"/>
      <point x="476" y="56"/>
      <point x="476" y="75" type="curve" smooth="yes"/>
      <point x="473" y="361" type="line" smooth="yes"/>
      <point x="473" y="422"/>
      <point x="424" y="465"/>
      <point x="354" y="465" type="curve" smooth="yes"/>
      <point x="287" y="465"/>
      <point x="199" y="426"/>
      <point x="141" y="371" type="curve"/>
      <point x="152" y="328" type="line"/>
      <point x="186" y="361"/>
      <point x="246" y="384"/>
      <point x="298" y="384" type="curve" smooth="yes"/>
      <point x="352" y="384"/>
      <point x="384" y="371"/>
      <point x="391" y="328" type="curve" smooth="yes"/>
      <point x="396" y="298"/>
      <point x="396" y="145"/>
      <point x="391" y="106" type="curve" smooth="yes"/>
      <point x="386" y="66"/>
      <point x="376" y="46"/>
      <point x="356" y="46" type="curve" smooth="yes"/>
      <point x="319" y="46" type="line"/>
    </contour>
    <contour>
      <point x="30" y="0" type="line"/>
      <point x="260" y="0" type="line"/>
      <point x="260" y="46" type="line"/>
      <point x="222" y="46" type="line" smooth="yes"/>
      <point x="198" y="46"/>
      <point x="179" y="58"/>
      <point x="179" y="86" type="curve" smooth="yes"/>
      <point x="179" y="400" type="line"/>
      <point x="183" y="453" type="line"/>
      <point x="168" y="466" type="line"/>
      <point x="143" y="452"/>
      <point x="100" y="432"/>
      <point x="59" y="420" type="curve"/>
      <point x="59" y="388" type="line"/>
      <point x="83" y="378"/>
      <point x="99" y="360"/>
      <point x="100" y="344" type="curve" smooth="yes"/>
      <point x="105" y="279"/>
      <point x="105" y="139"/>
      <point x="100" y="94" type="curve" smooth="yes"/>
      <point x="96" y="61"/>
      <point x="83" y="46"/>
      <point x="60" y="46" type="curve" smooth="yes"/>
      <point x="30" y="46" type="line"/>
    </contour>
  </outline>
</glyph>
<glyph name="o" format="2">
  <advance width="555"/>
  <unicode hex="006F"/>
  <anchor x="277" y="453" name="top"/>
  <anchor x="278" y="0" name="bottom"/>
  <anchor x="278" y="227" name="center"/>
  <anchor x="535" y="453" name="topright"/>
  <anchor x="500" y="10" name="ogonek"/>
  <outline>
    <contour>
      <point x="273" y="-12" type="curve" smooth="yes"/>
      <point x="414" y="-12"/>
      <point x="513" y="105"/>
      <point x="513" y="244" type="curve" smooth="yes"/>
      <point x="513" y="373"/>
      <point x="414" y="465"/>
      <point x="273" y="465" type="curve" smooth="yes"/>
      <point x="137" y="465"/>
      <point x="41" y="373"/>
      <point x="41" y="244" type="curve" smooth="yes"/>
      <point x="41" y="105"/>
      <point x="137" y="-12"/>
    </contour>
    <contour>
      <point x="290" y="37" type="curve" smooth="yes"/>
      <point x="202" y="37"/>
      <point x="141" y="131"/>
      <point x="141" y="240" type="curve" smooth="yes"/>
      <point x="141" y="342"/>
      <point x="191" y="415"/>
      <point x="259" y="416" type="curve" smooth="yes"/>
      <point x="351" y="416"/>
      <point x="414" y="338"/>
      <point x="414" y="229" type="curve" smooth="yes"/>
      <point x="414" y="126"/>
      <point x="361" y="38"/>
    </contour>
  </outline>
</glyph>
<glyph name="p" format="2">
  <advance width="543"/>
  <unicode hex="0070"/>
  <anchor x="272" y="453" name="top"/>
  <anchor x="272" y="0" name="bottom"/>
  <outline>
    <contour>
      <point x="16" y="-290" type="line"/>
      <point x="300" y="-290" type="line"/>
      <point x="300" y="-244" type="line"/>
      <point x="216" y="-244" type="line" smooth="yes"/>
      <point x="190" y="-244"/>
      <point x="176" y="-227"/>
      <point x="176" y="-203" type="curve" smooth="yes"/>
      <point x="176" y="404" type="line"/>
      <point x="173" y="453" type="line"/>
      <point x="168" y="465" type="line"/>
      <point x="126" y="443"/>
      <point x="72" y="424"/>
      <point x="31" y="418" type="curve"/>
      <point x="31" y="381" type="line"/>
      <point x="66" y="381"/>
      <point x="91" y="352"/>
      <point x="91" y="310" type="curve" smooth="yes"/>
      <point x="96" y="140"/>
      <point x="96" y="-11"/>
      <point x="91" y="-181" type="curve" smooth="yes"/>
      <point x="91" y="-218"/>
      <point x="68" y="-244"/>
      <point x="35" y="-244" type="curve" smooth="yes"/>
      <point x="16" y="-244" type="line"/>
    </contour>
    <contour>
      <point x="262" y="-12" type="curve" smooth="yes"/>
      <point x="403" y="-12"/>
      <point x="502" y="115"/>
      <point x="502" y="269" type="curve" smooth="yes"/>
      <point x="502" y="381"/>
      <point x="422" y="465"/>
      <point x="310" y="465" type="curve" smooth="yes"/>
      <point x="252" y="465"/>
      <point x="175" y="433"/>
      <point x="124" y="388" type="curve"/>
      <point x="142" y="349" type="line"/>
      <point x="172" y="377"/>
      <point x="219" y="397"/>
      <point x="254" y="397" type="curve" smooth="yes"/>
      <point x="337" y="397"/>
      <point x="406" y="342"/>
      <point x="406" y="245" type="curve" smooth="yes"/>
      <point x="406" y="123"/>
      <point x="336" y="49"/>
      <point x="253" y="49" type="curve" smooth="yes"/>
      <point x="212" y="49"/>
      <point x="170" y="70"/>
      <point x="151" y="100" type="curve"/>
      <point x="151" y="34" type="line"/>
      <point x="181" y="7"/>
      <point x="227" y="-12"/>
    </contour>
  </outline>
</glyph>
<glyph name="q" format="2">
  <advance width="551"/>
  <unicode hex="0071"/>
  <anchor x="276" y="453" name="top"/>
  <anchor x="276" y="0" name="bottom"/>
  <outline>
    <contour>
      <point x="259" y="-12" type="curve" smooth="yes"/>
      <point x="315" y="-12"/>
      <point x="384" y="6"/>
      <point x="426" y="32" type="curve"/>
      <point x="418" y="87" type="line"/>
      <point x="384" y="65"/>
      <point x="334" y="40"/>
      <point x="299" y="40" type="curve" smooth="yes"/>
      <point x="207" y="40"/>
      <point x="139" y="135"/>
      <point x="139" y="267" type="curve" smooth="yes"/>
      <point x="139" y="360"/>
      <point x="192" y="413"/>
      <point x="262" y="413" type="curve" smooth="yes"/>
      <point x="336" y="413"/>
      <point x="405" y="364"/>
      <point x="428" y="327" type="curve"/>
      <point x="428" y="435" type="line"/>
      <point x="400" y="453"/>
      <point x="350" y="466"/>
      <point x="309" y="466" type="curve" smooth="yes"/>
      <point x="152" y="466"/>
      <point x="41" y="374"/>
      <point x="41" y="243" type="curve" smooth="yes"/>
      <point x="41" y="104"/>
      <point x="131" y="-12"/>
    </contour>
    <contour>
      <point x="302" y="-282" type="line"/>
      <point x="547" y="-282" type="line"/>
      <point x="547" y="-237" type="line"/>
      <point x="532" y="-237" type="line" smooth="yes"/>
      <point x="495" y="-237"/>
      <point x="469" y="-218"/>
      <point x="469" y="-192" type="curve" smooth="yes"/>
      <point x="464" y="-12"/>
      <point x="464" y="168"/>
      <point x="469" y="348" type="curve" smooth="yes"/>
      <point x="469" y="397"/>
      <point x="473" y="439"/>
      <point x="478" y="451" type="curve"/>
      <point x="471" y="462" type="line"/>
      <point x="383" y="428" type="line"/>
      <point x="383" y="-192" type="line" smooth="yes"/>
      <point x="383" y="-218"/>
      <point x="369" y="-236"/>
      <point x="340" y="-236" type="curve" smooth="yes"/>
      <point x="302" y="-236" type="line"/>
    </contour>
  </outline>
</glyph>
<glyph name="r" format="2">
  <advance width="394"/>
  <unicode hex="0072"/>
  <anchor x="197" y="453" name="top"/>
  <anchor x="197" y="0" name="bottom"/>
  <outline>
    <contour>
      <point x="26" y="0" type="line"/>
      <point x="263" y="0" type="line"/>
      <point x="263" y="46" type="line"/>
      <point x="222" y="46" type="line" smooth="yes"/>
      <point x="199" y="46"/>
      <point x="186" y="54"/>
      <point x="186" y="65" type="curve" smooth="yes"/>
      <point x="186" y="307" type="line" smooth="yes"/>
      <point x="186" y="346"/>
      <point x="219" y="370"/>
      <point x="256" y="373" type="curve" smooth="yes"/>
      <point x="314" y="377"/>
      <point x="305" y="346"/>
      <point x="331" y="346" type="curve" smooth="yes"/>
      <point x="345" y="346"/>
      <point x="399" y="377"/>
      <point x="399" y="410" type="curve" smooth="yes"/>
      <point x="399" y="436"/>
      <point x="375" y="465"/>
      <point x="341" y="465" type="curve" smooth="yes"/>
      <point x="303" y="465"/>
      <point x="219" y="422"/>
      <point x="168" y="380" type="curve"/>
      <point x="184" y="367" type="line"/>
      <point x="198" y="460" type="line"/>
      <point x="188" y="471" type="line"/>
      <point x="148" y="452"/>
      <point x="87" y="431"/>
      <point x="41" y="420" type="curve"/>
      <point x="41" y="375" type="line"/>
      <point x="74" y="375"/>
      <point x="100" y="354"/>
      <point x="100" y="324" type="curve" smooth="yes"/>
      <point x="105" y="237"/>
      <point x="105" y="175"/>
      <point x="100" y="88" type="curve" smooth="yes"/>
      <point x="100" y="63"/>
      <point x="82" y="46"/>
      <point x="60" y="46" type="curve" smooth="yes"/>
      <point x="26" y="46" type="line"/>
    </contour>
  </outline>
</glyph>
<glyph name="s" format="2">
  <advance width="366"/>
  <unicode hex="0073"/>
  <anchor x="183" y="453" name="top"/>
  <anchor x="183" y="0" name="bottom"/>
  <outline>
    <contour>
      <point x="161" y="-15" type="curve" smooth="yes"/>
      <point x="256" y="-15"/>
      <point x="324" y="47"/>
      <point x="324" y="120" type="curve" smooth="yes"/>
      <point x="324" y="250"/>
      <point x="119" y="299"/>
      <point x="119" y="378" type="curve" smooth="yes"/>
      <point x="119" y="399"/>
      <point x="135" y="436"/>
      <point x="183" y="436" type="curve" smooth="yes"/>
      <point x="210" y="436"/>
      <point x="235" y="404"/>
      <point x="235" y="384" type="curve" smooth="yes"/>
      <point x="235" y="378"/>
      <point x="233" y="374"/>
      <point x="233" y="369" type="curve" smooth="yes"/>
      <point x="233" y="363"/>
      <point x="269" y="360"/>
      <point x="296" y="360" type="curve" smooth="yes"/>
      <point x="305" y="360"/>
      <point x="312" y="370"/>
      <point x="312" y="383" type="curve" smooth="yes"/>
      <point x="312" y="433"/>
      <point x="266" y="469"/>
      <point x="202" y="469" type="curve" smooth="yes"/>
      <point x="108" y="469"/>
      <point x="42" y="410"/>
      <point x="42" y="351" type="curve" smooth="yes"/>
      <point x="42" y="208"/>
      <point x="241" y="167"/>
      <point x="241" y="104" type="curve" smooth="yes"/>
      <point x="241" y="61"/>
      <point x="222" y="18"/>
      <point x="175" y="18" type="curve" smooth="yes"/>
      <point x="141" y="18"/>
      <point x="115" y="57"/>
      <point x="115" y="87" type="curve" smooth="yes"/>
      <point x="115" y="94"/>
      <point x="117" y="98"/>
      <point x="117" y="107" type="curve" smooth="yes"/>
      <point x="117" y="114"/>
      <point x="81" y="119"/>
      <point x="55" y="119" type="curve" smooth="yes"/>
      <point x="47" y="119"/>
      <point x="41" y="108"/>
      <point x="41" y="93" type="curve" smooth="yes"/>
      <point x="41" y="30"/>
      <point x="91" y="-15"/>
    </contour>
  </outline>
</glyph>
<glyph name="t" format="2">
  <advance width="373"/>
  <unicode hex="0074"/>
  <anchor x="187" y="532" name="top"/>
  <anchor x="187" y="0" name="bottom"/>
  <anchor x="187" y="227" name="center"/>
  <anchor x="353" y="700" name="topright"/>
  <outline>
    <contour>
      <point x="207" y="-12" type="curve" smooth="yes"/>
      <point x="270" y="-12"/>
      <point x="338" y="36"/>
      <point x="359" y="86" type="curve"/>
      <point x="330" y="108" type="line"/>
      <point x="308" y="81"/>
      <point x="272" y="62"/>
      <point x="242" y="62" type="curve" smooth="yes"/>
      <point x="199" y="62"/>
      <point x="167" y="96"/>
      <point x="167" y="143" type="curve" smooth="yes"/>
      <point x="167" y="377" type="line"/>
      <point x="326" y="377" type="line"/>
      <point x="326" y="453" type="line"/>
      <point x="172" y="453" type="line"/>
      <point x="172" y="520" type="line"/>
      <point x="158" y="532" type="line"/>
      <point x="120" y="481"/>
      <point x="67" y="436"/>
      <point x="29" y="423" type="curve"/>
      <point x="29" y="377" type="line"/>
      <point x="86" y="377" type="line"/>
      <point x="89" y="278"/>
      <point x="86" y="183"/>
      <point x="86" y="86" type="curve" smooth="yes"/>
      <point x="86" y="31"/>
      <point x="137" y="-12"/>
    </contour>
  </outline>
</glyph>
<glyph name="u" format="2">
  <advance width="564"/>
  <unicode hex="0075"/>
  <anchor x="282" y="453" name="top"/>
  <anchor x="282" y="0" name="bottom"/>
  <anchor x="508" y="10" name="ogonek"/>
  <anchor x="544" y="453" name="topright"/>
  <outline>
    <contour>
      <point x="216" y="-14" type="curve" smooth="yes"/>
      <point x="269" y="-14"/>
      <point x="353" y="21"/>
      <point x="419" y="78" type="curve"/>
      <point x="412" y="119" type="line"/>
      <point x="360" y="80"/>
      <point x="303" y="57"/>
      <point x="275" y="57" type="curve" smooth="yes"/>
      <point x="218" y="57"/>
      <point x="183" y="99"/>
      <point x="181" y="136" type="curve" smooth="yes"/>
      <point x="176" y="259"/>
      <point x="176" y="329"/>
      <point x="181" y="453" type="curve"/>
      <point x="17" y="453" type="line"/>
      <point x="17" y="407" type="line"/>
      <point x="25" y="407"/>
      <point x="29" y="407"/>
      <point x="41" y="407" type="curve" smooth="yes"/>
      <point x="73" y="407"/>
      <point x="96" y="385"/>
      <point x="96" y="353" type="curve" smooth="yes"/>
      <point x="96" y="266"/>
      <point x="96" y="178"/>
      <point x="96" y="91" type="curve" smooth="yes"/>
      <point x="96" y="35"/>
      <point x="146" y="-14"/>
    </contour>
    <contour>
      <point x="379" y="-11" type="line"/>
      <point x="544" y="17" type="line"/>
      <point x="539" y="62" type="line"/>
      <point x="522" y="58"/>
      <point x="498" y="56"/>
      <point x="481" y="56" type="curve" smooth="yes"/>
      <point x="468" y="56"/>
      <point x="458" y="70"/>
      <point x="458" y="89" type="curve" smooth="yes"/>
      <point x="458" y="108"/>
      <point x="458" y="372"/>
      <point x="458" y="390" type="curve" smooth="yes"/>
      <point x="462" y="441" type="line"/>
      <point x="455" y="453" type="line"/>
      <point x="269" y="453" type="line"/>
      <point x="269" y="407" type="line"/>
      <point x="283" y="407"/>
      <point x="298" y="407"/>
      <point x="311" y="407" type="curve" smooth="yes"/>
      <point x="350" y="407"/>
      <point x="371" y="387"/>
      <point x="372" y="358" type="curve" smooth="yes"/>
      <point x="377" y="259"/>
      <point x="377" y="160"/>
      <point x="372" y="61" type="curve"/>
      <point x="373" y="0" type="line"/>
    </contour>
  </outline>
</glyph>
<glyph name="v" format="2">
  <advance width="515"/>
  <unicode hex="0076"/>
  <anchor x="258" y="453" name="top"/>
  <anchor x="258" y="0" name="bottom"/>
  <outline>
    <contour>
      <point x="235" y="-15" type="curve"/>
      <point x="246" y="-15" type="line"/>
      <point x="297" y="115"/>
      <point x="384" y="323"/>
      <point x="400" y="365" type="curve" smooth="yes"/>
      <point x="416" y="407"/>
      <point x="496" y="407"/>
      <point x="509" y="407" type="curve"/>
      <point x="509" y="453" type="line"/>
      <point x="310" y="453" type="line"/>
      <point x="310" y="407" type="line"/>
      <point x="336" y="407" type="line" smooth="yes"/>
      <point x="352" y="407"/>
      <point x="364" y="395"/>
      <point x="355" y="380" type="curve"/>
      <point x="265" y="148" type="line"/>
      <point x="234" y="229"/>
      <point x="178" y="334"/>
      <point x="162" y="376" type="curve" smooth="yes"/>
      <point x="150" y="408"/>
      <point x="189" y="407"/>
      <point x="203" y="407" type="curve" smooth="yes"/>
      <point x="238" y="407" type="line"/>
      <point x="238" y="453" type="line"/>
      <point x="5" y="453" type="line"/>
      <point x="5" y="407" type="line"/>
      <point x="10" y="407"/>
      <point x="25" y="407"/>
      <point x="30" y="407" type="curve" smooth="yes"/>
      <point x="35" y="407"/>
      <point x="67" y="405"/>
      <point x="81" y="364" type="curve"/>
      <point x="136" y="239"/>
      <point x="188" y="112"/>
    </contour>
  </outline>
</glyph>
<glyph name="w" format="2">
  <advance width="771"/>
  <unicode hex="0077"/>
  <anchor x="386" y="453" name="top"/>
  <anchor x="386" y="0" name="bottom"/>
  <outline>
    <contour>
      <point x="81" y="364" type="curve"/>
      <point x="250" y="-15" type="line"/>
      <point x="266" y="-15" type="line"/>
      <point x="317" y="115"/>
      <point x="384" y="323"/>
      <point x="400" y="365" type="curve" smooth="yes"/>
      <point x="416" y="407"/>
      <point x="476" y="407"/>
      <point x="489" y="407" type="curve"/>
      <point x="489" y="453" type="line"/>
      <point x="310" y="453" type="line"/>
      <point x="310" y="407" type="line"/>
      <point x="315" y="407"/>
      <point x="329" y="407"/>
      <point x="336" y="407" type="curve" smooth="yes"/>
      <point x="355" y="407"/>
      <point x="376" y="438"/>
      <point x="355" y="380" type="curve" smooth="yes"/>
      <point x="266" y="129" type="line"/>
      <point x="161" y="372" type="line"/>
      <point x="149" y="404"/>
      <point x="189" y="407"/>
      <point x="203" y="407" type="curve" smooth="yes"/>
      <point x="238" y="407" type="line"/>
      <point x="238" y="453" type="line"/>
      <point x="5" y="453" type="line"/>
      <point x="5" y="407" type="line"/>
      <point x="10" y="407"/>
      <point x="25" y="407"/>
      <point x="30" y="407" type="curve" smooth="yes"/>
      <point x="35" y="407"/>
      <point x="67" y="405"/>
    </contour>
    <contour>
      <point x="346" y="364" type="curve" smooth="yes"/>
      <point x="476" y="-15" type="line"/>
      <point x="492" y="-15" type="line"/>
      <point x="543" y="115"/>
      <point x="640" y="323"/>
      <point x="656" y="365" type="curve" smooth="yes"/>
      <point x="672" y="407"/>
      <point x="752" y="407"/>
      <point x="765" y="407" type="curve"/>
      <point x="765" y="453" type="line"/>
      <point x="566" y="453" type="line"/>
      <point x="566" y="407" type="line"/>
      <point x="571" y="407"/>
      <point x="585" y="407"/>
      <point x="592" y="407" type="curve" smooth="yes"/>
      <point x="608" y="407"/>
      <point x="618" y="395"/>
      <point x="611" y="380" type="curve" smooth="yes"/>
      <point x="505" y="136" type="line"/>
      <point x="425" y="379" type="line" smooth="yes"/>
      <point x="413" y="411"/>
      <point x="445" y="407"/>
      <point x="459" y="407" type="curve" smooth="yes"/>
      <point x="494" y="407" type="line"/>
      <point x="494" y="453" type="line"/>
      <point x="288" y="453" type="line"/>
      <point x="288" y="407" type="line"/>
      <point x="293" y="407"/>
      <point x="310" y="407"/>
      <point x="315" y="407" type="curve" smooth="yes"/>
      <point x="320" y="407"/>
      <point x="332" y="405"/>
    </contour>
  </outline>
</glyph>
<glyph name="x" format="2">
  <advance width="515"/>
  <unicode hex="0078"/>
  <anchor x="258" y="453" name="top"/>
  <anchor x="258" y="0" name="bottom"/>
  <outline>
    <contour>
      <point x="81" y="364" type="curve" smooth="yes"/>
      <point x="215" y="225" type="line"/>
      <point x="309" y="225" type="line"/>
      <point x="169" y="379" type="line" smooth="yes"/>
      <point x="146" y="404"/>
      <point x="189" y="407"/>
      <point x="203" y="407" type="curve" smooth="yes"/>
      <point x="238" y="407" type="line"/>
      <point x="238" y="453" type="line"/>
      <point x="5" y="453" type="line"/>
      <point x="5" y="407" type="line"/>
      <point x="10" y="407"/>
      <point x="25" y="407"/>
      <point x="30" y="407" type="curve" smooth="yes"/>
      <point x="35" y="407"/>
      <point x="52" y="394"/>
    </contour>
    <contour>
      <point x="5" y="46" type="curve"/>
      <point x="5" y="0" type="line"/>
      <point x="204" y="0" type="line"/>
      <point x="204" y="46" type="line"/>
      <point x="199" y="46"/>
      <point x="195" y="46"/>
      <point x="188" y="46" type="curve" smooth="yes"/>
      <point x="169" y="46"/>
      <point x="118" y="45"/>
      <point x="157" y="91" type="curve" smooth="yes"/>
      <point x="275" y="226" type="line"/>
      <point x="216" y="226" type="line"/>
      <point x="97" y="88" type="line" smooth="yes"/>
      <point x="67" y="54"/>
      <point x="18" y="46"/>
    </contour>
    <contour>
      <point x="276" y="0" type="line"/>
      <point x="509" y="0" type="line"/>
      <point x="509" y="46" type="line"/>
      <point x="504" y="46"/>
      <point x="489" y="46"/>
      <point x="484" y="46" type="curve" smooth="yes"/>
      <point x="479" y="46"/>
      <point x="463" y="57"/>
      <point x="433" y="89" type="curve" smooth="yes"/>
      <point x="309" y="225" type="line"/>
      <point x="215" y="225" type="line"/>
      <point x="345" y="74" type="line" smooth="yes"/>
      <point x="367" y="48"/>
      <point x="325" y="46"/>
      <point x="311" y="46" type="curve" smooth="yes"/>
      <point x="276" y="46" type="line"/>
    </contour>
    <contour>
      <point x="357" y="362" type="curve" smooth="yes"/>
      <point x="234" y="231" type="line"/>
      <point x="293" y="231" type="line"/>
      <point x="418" y="365" type="line" smooth="yes"/>
      <point x="448" y="397"/>
      <point x="496" y="407"/>
      <point x="509" y="407" type="curve"/>
      <point x="509" y="453" type="line"/>
      <point x="310" y="453" type="line"/>
      <point x="310" y="407" type="line"/>
      <point x="315" y="407"/>
      <point x="319" y="407"/>
      <point x="326" y="407" type="curve" smooth="yes"/>
      <point x="345" y="407"/>
      <point x="399" y="406"/>
    </contour>
  </outline>
</glyph>
<glyph name="y" format="2">
  <advance width="506"/>
  <unicode hex="0079"/>
  <anchor x="253" y="453" name="top"/>
  <anchor x="253" y="0" name="bottom"/>
  <outline>
    <contour>
      <point x="117" y="-278" type="curve" smooth="yes"/>
      <point x="157" y="-278"/>
      <point x="198" y="-243"/>
      <point x="216" y="-193" type="curve" smooth="yes"/>
      <point x="251" y="-96"/>
      <point x="267" y="-64"/>
      <point x="295" y="13" type="curve" smooth="yes"/>
      <point x="423" y="359" type="line" smooth="yes"/>
      <point x="434" y="388"/>
      <point x="466" y="409"/>
      <point x="500" y="409" type="curve"/>
      <point x="500" y="453" type="line"/>
      <point x="307" y="453" type="line"/>
      <point x="307" y="407" type="line"/>
      <point x="351" y="407" type="line" smooth="yes"/>
      <point x="362" y="407"/>
      <point x="386" y="393"/>
      <point x="381" y="375" type="curve" smooth="yes"/>
      <point x="286" y="97" type="line"/>
      <point x="165" y="352" type="line"/>
      <point x="154" y="384"/>
      <point x="182" y="407"/>
      <point x="222" y="407" type="curve" smooth="yes"/>
      <point x="235" y="407" type="line"/>
      <point x="235" y="453" type="line"/>
      <point x="5" y="453" type="line"/>
      <point x="5" y="407" type="line"/>
      <point x="20" y="407" type="line" smooth="yes"/>
      <point x="39" y="407"/>
      <point x="58" y="396"/>
      <point x="65" y="381" type="curve" smooth="yes"/>
      <point x="144" y="222"/>
      <point x="215" y="53"/>
      <point x="237" y="0" type="curve"/>
      <point x="238" y="69" type="line"/>
      <point x="222" y="-17"/>
      <point x="182" y="-124"/>
      <point x="182" y="-124" type="curve"/>
      <point x="170" y="-163"/>
      <point x="152" y="-190"/>
      <point x="139" y="-190" type="curve" smooth="yes"/>
      <point x="111" y="-190"/>
      <point x="120" y="-176"/>
      <point x="97" y="-176" type="curve" smooth="yes"/>
      <point x="76" y="-176"/>
      <point x="61" y="-193"/>
      <point x="61" y="-217" type="curve" smooth="yes"/>
      <point x="61" y="-253"/>
      <point x="84" y="-278"/>
    </contour>
  </outline>
</glyph>
<glyph name="z" format="2">
  <advance width="499"/>
  <unicode hex="007A"/>
  <anchor x="250" y="453" name="top"/>
  <anchor x="250" y="0" name="bottom"/>
  <anchor x="250" y="227" name="center"/>
  <outline>
    <contour>
      <point x="297" y="391" type="curve" smooth="yes"/>
      <point x="53" y="0" type="line"/>
      <point x="226" y="0" type="line"/>
      <point x="226" y="48" type="line"/>
      <point x="196" y="48" type="line" smooth="yes"/>
      <point x="188" y="48"/>
      <point x="186" y="57"/>
      <point x="192" y="69" type="curve"/>
      <point x="266" y="185"/>
      <point x="334" y="302"/>
      <point x="416" y="416" type="curve"/>
      <point x="416" y="456" type="line"/>
      <point x="114" y="456" type="line"/>
      <point x="75" y="310" type="line"/>
      <point x="109" y="302" type="line"/>
      <point x="130" y="375"/>
      <point x="162" y="409"/>
      <point x="187" y="409" type="curve" smooth="yes"/>
      <point x="293" y="409" type="line" smooth="yes"/>
      <point x="302" y="409"/>
      <point x="304" y="402"/>
    </contour>
    <contour>
      <point x="81" y="0" type="line"/>
      <point x="406" y="0" type="line"/>
      <point x="439" y="143" type="line"/>
      <point x="405" y="150" type="line"/>
      <point x="395" y="80"/>
      <point x="358" y="48"/>
      <point x="316" y="48" type="curve" smooth="yes"/>
      <point x="263" y="48" type="line"/>
      <point x="127" y="48" type="line"/>
      <point x="81" y="30" type="line"/>
    </contour>
  </outline>
</glyph>
<glyph name="AE" format="2">
  <advance width="999"/>
  <unicode hex="00C6"/>
  <anchor x="500" y="700" name="top"/>
  <anchor x="500" y="0" name="bottom"/>
  <outline>
    <contour>
      <point x="695" y="-2" type="curve" smooth="yes"/>
      <point x="855" y="0" type="line"/>
      <point x="948" y="131" type="line"/>
      <point x="910" y="149" type="line"/>
      <point x="848" y="82"/>
      <point x="810" y="52"/>
      <point x="781" y="52" type="curve" smooth="yes"/>
      <point x="738" y="52"/>
      <point x="670" y="52"/>
      <point x="649" y="52" type="curve" smooth="yes"/>
      <point x="612" y="52"/>
      <point x="585" y="74"/>
      <point x="585" y="104" type="curve" smooth="yes"/>
      <point x="585" y="134"/>
      <point x="585" y="606"/>
      <point x="585" y="618" type="curve" smooth="yes"/>
      <point x="585" y="636"/>
      <point x="609" y="648"/>
      <point x="642" y="648" type="curve" smooth="yes"/>
      <point x="662" y="648"/>
      <point x="706" y="648"/>
      <point x="723" y="648" type="curve" smooth="yes"/>
      <point x="764" y="648"/>
      <point x="805" y="613"/>
      <point x="847" y="539" type="curve"/>
      <point x="888" y="552" type="line"/>
      <point x="821" y="700" type="line"/>
      <point x="722" y="700"/>
      <point x="635" y="698"/>
      <point x="536" y="698" type="curve" smooth="yes"/>
      <point x="488" y="698"/>
      <point x="329" y="700"/>
      <point x="276" y="700" type="curve"/>
      <point x="276" y="655" type="line"/>
      <point x="327" y="655"/>
      <point x="400" y="655"/>
      <point x="428" y="655" type="curve" smooth="yes"/>
      <point x="461" y="655"/>
      <point x="485" y="644"/>
      <point x="485" y="616" type="curve" smooth="yes"/>
      <point x="485" y="542"/>
      <point x="485" y="165"/>
      <point x="485" y="124" type="curve" smooth="yes"/>
      <point x="485" y="78"/>
      <point x="464" y="46"/>
      <point x="434" y="46" type="curve" smooth="yes"/>
      <point x="402" y="46" type="line"/>
      <point x="402" y="0" type="line"/>
      <point x="443" y="0"/>
      <point x="495" y="2"/>
      <point x="531" y="2" type="curve" smooth="yes"/>
      <point x="567" y="2"/>
      <point x="655" y="-2"/>
    </contour>
    <contour>
      <point x="23" y="0" type="line"/>
      <point x="309" y="0" type="line"/>
      <point x="309" y="46" type="line"/>
      <point x="291" y="46" type="line" smooth="yes"/>
      <point x="253" y="46"/>
      <point x="225" y="76"/>
      <point x="239" y="116" type="curve"/>
      <point x="494" y="686" type="line"/>
      <point x="442" y="689" type="line"/>
      <point x="293" y="371"/>
      <point x="215" y="230"/>
      <point x="189" y="174" type="curve" smooth="yes"/>
      <point x="155" y="101"/>
      <point x="99" y="46"/>
      <point x="50" y="46" type="curve" smooth="yes"/>
      <point x="23" y="46" type="line"/>
    </contour>
    <contour>
      <point x="778" y="200" type="curve"/>
      <point x="814" y="200" type="line"/>
      <point x="810" y="271"/>
      <point x="810" y="371"/>
      <point x="814" y="442" type="curve"/>
      <point x="777" y="442" type="line"/>
      <point x="777" y="379"/>
      <point x="751" y="352"/>
      <point x="714" y="352" type="curve" smooth="yes"/>
      <point x="295" y="352" type="line"/>
      <point x="294" y="295" type="line"/>
      <point x="357" y="295"/>
      <point x="689" y="295"/>
      <point x="714" y="295" type="curve" smooth="yes"/>
      <point x="751" y="295"/>
      <point x="778" y="261"/>
    </contour>
  </outline>
</glyph>
<glyph name="germandbls" format="2">
  <advance width="596"/>
  <unicode hex="00DF"/>
  <anchor x="298" y="700" name="top"/>
  <anchor x="298" y="0" name="bottom"/>
  <outline>
    <contour>
      <point x="15" y="0" type="line"/>
      <point x="184" y="0" type="line"/>
      <point x="185" y="59" type="line"/>
      <point x="185" y="549" type="line" smooth="yes"/>
      <point x="185" y="622"/>
      <point x="210" y="651"/>
      <point x="238" y="675" type="curve" smooth="yes"/>
      <point x="252" y="687"/>
      <point x="273" y="699"/>
      <point x="295" y="699" type="curve"/>
      <point x="362" y="779" type="line"/>
      <point x="321" y="779"/>
      <point x="253" y="746"/>
      <point x="198" y="699" type="curve" smooth="yes"/>
      <point x="145" y="655"/>
      <point x="108" y="600"/>
      <point x="108" y="530" type="curve" smooth="yes"/>
      <point x="108" y="467"/>
      <point x="77" y="422"/>
      <point x="32" y="422" type="curve" smooth="yes"/>
      <point x="20" y="422" type="line"/>
      <point x="20" y="376" type="line"/>
      <point x="105" y="376" type="line"/>
      <point x="105" y="95" type="line" smooth="yes"/>
      <point x="105" y="66"/>
      <point x="86" y="46"/>
      <point x="60" y="46" type="curve" smooth="yes"/>
      <point x="15" y="46" type="line"/>
    </contour>
    <contour>
      <point x="391" y="-12" type="curve" smooth="yes"/>
      <point x="486" y="-12"/>
      <point x="554" y="49"/>
      <point x="554" y="136" type="curve" smooth="yes"/>
      <point x="554" y="249"/>
      <point x="351" y="313"/>
      <point x="351" y="409" type="curve" smooth="yes"/>
      <point x="351" y="475"/>
      <point x="505" y="487"/>
      <point x="505" y="612" type="curve" smooth="yes"/>
      <point x="505" y="710"/>
      <point x="446" y="779"/>
      <point x="362" y="779" type="curve"/>
      <point x="295" y="699" type="line"/>
      <point x="364" y="699"/>
      <point x="413" y="645"/>
      <point x="413" y="568" type="curve" smooth="yes"/>
      <point x="413" y="445"/>
      <point x="292" y="507"/>
      <point x="292" y="362" type="curve" smooth="yes"/>
      <point x="292" y="228"/>
      <point x="488" y="180"/>
      <point x="488" y="100" type="curve" smooth="yes"/>
      <point x="488" y="63"/>
      <point x="455" y="36"/>
      <point x="408" y="36" type="curve" smooth="yes"/>
      <point x="366" y="36"/>
      <point x="335" y="58"/>
      <point x="335" y="88" type="curve" smooth="yes"/>
      <point x="335" y="95"/>
      <point x="337" y="101"/>
      <point x="337" y="110" type="curve" smooth="yes"/>
      <point x="337" y="117"/>
      <point x="316" y="122"/>
      <point x="285" y="122" type="curve" smooth="yes"/>
      <point x="277" y="122"/>
      <point x="271" y="111"/>
      <point x="271" y="96" type="curve" smooth="yes"/>
      <point x="271" y="33"/>
      <point x="321" y="-12"/>
    </contour>
  </outline>
</glyph>
<glyph name="ae" format="2">
  <advance width="689"/>
  <unicode hex="00E6"/>
  <anchor x="345" y="453" name="top"/>
  <anchor x="345" y="0" name="bottom"/>
  <outline>
    <contour>
      <point x="140" y="-15" type="curve" smooth="yes"/>
      <point x="182" y="-15"/>
      <point x="270" y="19"/>
      <point x="314" y="69" type="curve"/>
      <point x="311" y="118" type="line"/>
      <point x="268" y="76"/>
      <point x="224" y="59"/>
      <point x="195" y="59" type="curve" smooth="yes"/>
      <point x="158" y="59"/>
      <point x="132" y="96"/>
      <point x="132" y="149" type="curve" smooth="yes"/>
      <point x="132" y="151"/>
      <point x="146" y="151"/>
      <point x="159" y="159" type="curve"/>
      <point x="627" y="294" type="line" smooth="yes"/>
      <point x="636" y="297"/>
      <point x="643" y="312"/>
      <point x="643" y="331" type="curve" smooth="yes"/>
      <point x="643" y="397"/>
      <point x="594" y="461"/>
      <point x="525" y="461" type="curve" smooth="yes"/>
      <point x="443" y="461"/>
      <point x="362" y="395"/>
      <point x="328" y="326" type="curve"/>
      <point x="370" y="352" type="line"/>
      <point x="374" y="410"/>
      <point x="321" y="468"/>
      <point x="250" y="468" type="curve" smooth="yes"/>
      <point x="211" y="468"/>
      <point x="149" y="439"/>
      <point x="101" y="396" type="curve" smooth="yes"/>
      <point x="71" y="370"/>
      <point x="50" y="332"/>
      <point x="50" y="304" type="curve" smooth="yes"/>
      <point x="50" y="287"/>
      <point x="67" y="276"/>
      <point x="89" y="276" type="curve" smooth="yes"/>
      <point x="112" y="276"/>
      <point x="129" y="288"/>
      <point x="129" y="307" type="curve" smooth="yes"/>
      <point x="129" y="338"/>
      <point x="114" y="314"/>
      <point x="114" y="340" type="curve" smooth="yes"/>
      <point x="114" y="367"/>
      <point x="187" y="386"/>
      <point x="211" y="386" type="curve" smooth="yes"/>
      <point x="268" y="386"/>
      <point x="287" y="364"/>
      <point x="287" y="336" type="curve" smooth="yes"/>
      <point x="287" y="308"/>
      <point x="287" y="109"/>
      <point x="287" y="89" type="curve"/>
      <point x="287" y="89"/>
      <point x="296" y="80"/>
      <point x="296" y="80" type="curve"/>
      <point x="314" y="23"/>
      <point x="381" y="-13"/>
      <point x="459" y="-13" type="curve" smooth="yes"/>
      <point x="524" y="-13"/>
      <point x="606" y="30"/>
      <point x="656" y="90" type="curve"/>
      <point x="636" y="128" type="line"/>
      <point x="609" y="96"/>
      <point x="554" y="73"/>
      <point x="504" y="73" type="curve" smooth="yes"/>
      <point x="421" y="73"/>
      <point x="363" y="136"/>
      <point x="363" y="225" type="curve" smooth="yes"/>
      <point x="363" y="321"/>
      <point x="409" y="406"/>
      <point x="473" y="406" type="curve" smooth="yes"/>
      <point x="511" y="406"/>
      <point x="539" y="366"/>
      <point x="541" y="333" type="curve" smooth="yes"/>
      <point x="541" y="322"/>
      <point x="531" y="311"/>
      <point x="518" y="307" type="curve" smooth="yes"/>
      <point x="131" y="195" type="line"/>
      <point x="84" y="173"/>
      <point x="50" y="133"/>
      <point x="50" y="99" type="curve" smooth="yes"/>
      <point x="50" y="32"/>
      <point x="80" y="-15"/>
    </contour>
  </outline>
</glyph>
<glyph name="OE" format="2">
  <advance width="1213"/>
  <unicode hex="0152"/>
  <anchor x="607" y="700" name="top"/>
  <anchor x="607" y="0" name="bottom"/>
  <outline>
    <contour>
      <point x="408" y="-11" type="curve" smooth="yes"/>
      <point x="614" y="-11"/>
      <point x="759" y="136"/>
      <point x="759" y="345" type="curve" smooth="yes"/>
      <point x="759" y="564"/>
      <point x="615" y="719"/>
      <point x="411" y="719" type="curve" smooth="yes"/>
      <point x="211" y="719"/>
      <point x="69" y="564"/>
      <point x="69" y="345" type="curve" smooth="yes"/>
      <point x="69" y="136"/>
      <point x="209" y="-11"/>
    </contour>
    <contour>
      <point x="425" y="37" type="curve" smooth="yes"/>
      <point x="292" y="37"/>
      <point x="198" y="171"/>
      <point x="198" y="385" type="curve" smooth="yes"/>
      <point x="198" y="563"/>
      <point x="283" y="672"/>
      <point x="404" y="672" type="curve" smooth="yes"/>
      <point x="536" y="672"/>
      <point x="630" y="530"/>
      <point x="630" y="306" type="curve" smooth="yes"/>
      <point x="630" y="138"/>
      <point x="545" y="37"/>
    </contour>
    <contour>
      <point x="967" y="200" type="curve"/>
      <point x="1012" y="200" type="line"/>
      <point x="1008" y="277"/>
      <point x="1008" y="385"/>
      <point x="1012" y="462" type="curve"/>
      <point x="966" y="462" type="line"/>
      <point x="966" y="399"/>
      <point x="940" y="354"/>
      <point x="903" y="354" type="curve" smooth="yes"/>
      <point x="694" y="354" type="line"/>
      <point x="703" y="304" type="line"/>
      <point x="766" y="304"/>
      <point x="888" y="304"/>
      <point x="913" y="304" type="curve" smooth="yes"/>
      <point x="945" y="304"/>
      <point x="967" y="261"/>
    </contour>
    <contour>
      <point x="569" y="63" type="curve"/>
      <point x="499" y="-1" type="line"/>
      <point x="1083" y="-1" type="line"/>
      <point x="1162" y="163" type="line"/>
      <point x="1120" y="178" type="line"/>
      <point x="1076" y="105"/>
      <point x="1029" y="63"/>
      <point x="982" y="63" type="curve" smooth="yes"/>
      <point x="970" y="63"/>
      <point x="619" y="63"/>
    </contour>
    <contour>
      <point x="500" y="700" type="curve"/>
      <point x="530" y="636" type="line"/>
      <point x="567" y="636"/>
      <point x="942" y="636"/>
      <point x="950" y="636" type="curve" smooth="yes"/>
      <point x="1011" y="636"/>
      <point x="1038" y="598"/>
      <point x="1038" y="531" type="curve"/>
      <point x="1083" y="531" type="line"/>
      <point x="1083" y="700" type="line"/>
      <point x="1016" y="700"/>
      <point x="551" y="700"/>
    </contour>
  </outline>
</glyph>
<glyph name="c_t" format="2">
  <advance width="793"/>
  <anchor x="198" y="453" name="top_1"/>
  <anchor x="595" y="453" name="top_2"/>
  <anchor x="198" y="0" name="bottom_1"/>
  <anchor x="595" y="0" name="bottom_2"/>
  <anchor x="396.5" y="0" name="caret_1"/>
  <outline>
    <contour>
      <point x="229" y="-12" type="curve" smooth="yes"/>
      <point x="291" y="-12"/>
      <point x="372" y="30"/>
      <point x="424" y="90" type="curve"/>
      <point x="404" y="128" type="line"/>
      <point x="372" y="95"/>
      <point x="321" y="72"/>
      <point x="280" y="72" type="curve" smooth="yes"/>
      <point x="186" y="72"/>
      <point x="120" y="146"/>
      <point x="120" y="251" type="curve" smooth="yes"/>
      <point x="120" y="351"/>
      <point x="170" y="409"/>
      <point x="240" y="409" type="curve" smooth="yes"/>
      <point x="323" y="409"/>
      <point x="300" y="358"/>
      <point x="345" y="358" type="curve" smooth="yes"/>
      <point x="376" y="358"/>
      <point x="398" y="373"/>
      <point x="398" y="394" type="curve" smooth="yes"/>
      <point x="398" y="436"/>
      <point x="353" y="465"/>
      <point x="289" y="465" type="curve" smooth="yes"/>
      <point x="144" y="465"/>
      <point x="41" y="356"/>
      <point x="41" y="210" type="curve" smooth="yes"/>
      <point x="41" y="91"/>
      <point x="119" y="-12"/>
    </contour>
    <contour>
      <point x="635" y="-12" type="curve" smooth="yes"/>
      <point x="698" y="-12"/>
      <point x="750" y="31"/>
      <point x="778" y="81" type="curve"/>
      <point x="758" y="108" type="line"/>
      <point x="736" y="81"/>
      <point x="700" y="62"/>
      <point x="670" y="62" type="curve" smooth="yes"/>
      <point x="627" y="62"/>
      <point x="596" y="78"/>
      <point x="596" y="125" type="curve" smooth="yes"/>
      <point x="596" y="377" type="line"/>
      <point x="754" y="377" type="line"/>
      <point x="754" y="453" type="line"/>
      <point x="600" y="453" type="line"/>
      <point x="600" y="520" type="line"/>
      <point x="586" y="532" type="line"/>
      <point x="548" y="481"/>
      <point x="495" y="436"/>
      <point x="457" y="423" type="curve"/>
      <point x="457" y="377" type="line"/>
      <point x="515" y="377" type="line"/>
      <point x="515" y="286"/>
      <point x="515" y="100"/>
      <point x="515" y="82" type="curve" smooth="yes"/>
      <point x="515" y="27"/>
      <point x="565" y="-12"/>
    </contour>
    <contour>
      <point x="337" y="392" type="curve"/>
      <point x="372" y="442" type="line"/>
      <point x="341" y="464"/>
      <point x="319" y="513"/>
      <point x="319" y="561" type="curve" smooth="yes"/>
      <point x="319" y="608"/>
      <point x="363" y="641"/>
      <point x="426" y="641" type="curve" smooth="yes"/>
      <point x="494" y="641"/>
      <point x="542" y="608"/>
      <point x="543" y="562" type="curve" smooth="yes"/>
      <point x="543" y="498"/>
      <point x="507" y="440"/>
      <point x="457" y="423" type="curve"/>
      <point x="600" y="453" type="line"/>
      <point x="602" y="562" type="line" smooth="yes"/>
      <point x="602" y="644"/>
      <point x="529" y="700"/>
      <point x="426" y="700" type="curve" smooth="yes"/>
      <point x="327" y="700"/>
      <point x="259" y="644"/>
      <point x="259" y="562" type="curve" smooth="yes"/>
      <point x="259" y="493"/>
      <point x="291" y="423"/>
    </contour>
  </outline>
</glyph>
<glyph name="f_f" format="2">
  <advance width="614"/>
  <anchor x="307" y="0" name="caret_1"/>
  <outline>
    <contour>
      <point x="10" y="0" type="line"/>
      <point x="266" y="0" type="line"/>
      <point x="266" y="46" type="line"/>
      <point x="219" y="46" type="line" smooth="yes"/>
      <point x="197" y="46"/>
      <point x="181" y="59"/>
      <point x="181" y="77" type="curve" smooth="yes"/>
      <point x="181" y="549" type="line" smooth="yes"/>
      <point x="181" y="663"/>
      <point x="232" y="709"/>
      <point x="278" y="709" type="curve" smooth="yes"/>
      <point x="373" y="709"/>
      <point x="427" y="654"/>
      <point x="430" y="577" type="curve"/>
      <point x="486" y="657" type="line"/>
      <point x="466" y="729"/>
      <point x="410" y="780"/>
      <point x="350" y="780" type="curve" smooth="yes"/>
      <point x="217" y="780"/>
      <point x="103" y="687"/>
      <point x="103" y="530" type="curve" smooth="yes"/>
      <point x="103" y="467"/>
      <point x="72" y="422"/>
      <point x="27" y="422" type="curve" smooth="yes"/>
      <point x="15" y="422" type="line"/>
      <point x="15" y="376" type="line"/>
      <point x="100" y="376" type="line"/>
      <point x="100" y="95" type="line" smooth="yes"/>
      <point x="100" y="66"/>
      <point x="81" y="46"/>
      <point x="55" y="46" type="curve" smooth="yes"/>
      <point x="10" y="46" type="line"/>
    </contour>
    <contour>
      <point x="170" y="376" type="line"/>
      <point x="403" y="376" type="line"/>
      <point x="403" y="453" type="line"/>
      <point x="170" y="453" type="line"/>
    </contour>
    <contour>
      <point x="307" y="0" type="line"/>
      <point x="563" y="0" type="line"/>
      <point x="563" y="46" type="line"/>
      <point x="516" y="46" type="line" smooth="yes"/>
      <point x="494" y="46"/>
      <point x="478" y="59"/>
      <point x="478" y="77" type="curve" smooth="yes"/>
      <point x="478" y="549" type="line" smooth="yes"/>
      <point x="478" y="622"/>
      <point x="502" y="651"/>
      <point x="530" y="675" type="curve" smooth="yes"/>
      <point x="544" y="687"/>
      <point x="565" y="699"/>
      <point x="587" y="699" type="curve" smooth="yes"/>
      <point x="639" y="699"/>
      <point x="618" y="650"/>
      <point x="666" y="650" type="curve" smooth="yes"/>
      <point x="691" y="650"/>
      <point x="742" y="676"/>
      <point x="742" y="713" type="curve" smooth="yes"/>
      <point x="742" y="752"/>
      <point x="706" y="779"/>
      <point x="654" y="779" type="curve" smooth="yes"/>
      <point x="613" y="779"/>
      <point x="545" y="746"/>
      <point x="490" y="699" type="curve" smooth="yes"/>
      <point x="437" y="655"/>
      <point x="400" y="600"/>
      <point x="400" y="530" type="curve" smooth="yes"/>
      <point x="400" y="467"/>
      <point x="369" y="422"/>
      <point x="324" y="422" type="curve" smooth="yes"/>
      <point x="312" y="422" type="line"/>
      <point x="312" y="376" type="line"/>
      <point x="397" y="376" type="line"/>
      <point x="397" y="95" type="line" smooth="yes"/>
      <point x="397" y="66"/>
      <point x="378" y="46"/>
      <point x="352" y="46" type="curve" smooth="yes"/>
      <point x="307" y="46" type="line"/>
    </contour>
    <contour>
      <point x="464" y="376" type="line"/>
      <point x="597" y="376" type="line"/>
      <point x="597" y="453" type="line"/>
      <point x="464" y="453" type="line"/>
    </contour>
  </outline>
</glyph>
<glyph name="f_i" format="2">
  <advance width="582"/>
  <anchor x="146" y="700" name="top_1"/>
  <anchor x="437" y="700" name="top_2"/>
  <anchor x="146" y="0" name="bottom_1"/>
  <anchor x="437" y="0" name="bottom_2"/>
  <anchor x="291" y="0" name="caret_1"/>
  <outline>
    <contour>
      <point x="10" y="0" type="line"/>
      <point x="266" y="0" type="line"/>
      <point x="266" y="46" type="line"/>
      <point x="219" y="46" type="line" smooth="yes"/>
      <point x="197" y="46"/>
      <point x="181" y="59"/>
      <point x="181" y="77" type="curve" smooth="yes"/>
      <point x="181" y="549" type="line" smooth="yes"/>
      <point x="181" y="663"/>
      <point x="214" y="709"/>
      <point x="260" y="709" type="curve" smooth="yes"/>
      <point x="294" y="709"/>
      <point x="348" y="691"/>
      <point x="361" y="641" type="curve"/>
      <point x="457" y="641" type="line"/>
      <point x="448" y="722"/>
      <point x="394" y="780"/>
      <point x="340" y="780" type="curve" smooth="yes"/>
      <point x="207" y="780"/>
      <point x="103" y="687"/>
      <point x="103" y="530" type="curve" smooth="yes"/>
      <point x="103" y="467"/>
      <point x="72" y="422"/>
      <point x="27" y="422" type="curve" smooth="yes"/>
      <point x="15" y="422" type="line"/>
      <point x="15" y="376" type="line"/>
      <point x="100" y="376" type="line"/>
      <point x="100" y="95" type="line" smooth="yes"/>
      <point x="100" y="66"/>
      <point x="81" y="46"/>
      <point x="55" y="46" type="curve" smooth="yes"/>
      <point x="10" y="46" type="line"/>
    </contour>
    <contour>
      <point x="160" y="376" type="line"/>
      <point x="344" y="376" type="line"/>
      <point x="344" y="453" type="line"/>
      <point x="160" y="453" type="line"/>
    </contour>
    <contour>
      <point x="346" y="0" type="line"/>
      <point x="554" y="0" type="line"/>
      <point x="554" y="46" type="line"/>
      <point x="509" y="46" type="line" smooth="yes"/>
      <point x="493" y="46"/>
      <point x="482" y="58"/>
      <point x="482" y="75" type="curve" smooth="yes"/>
      <point x="482" y="370" type="line"/>
      <point x="485" y="453" type="line"/>
      <point x="476" y="469" type="line"/>
      <point x="455" y="461"/>
      <point x="400" y="454"/>
      <point x="344" y="453" type="curve"/>
      <point x="344" y="376" type="line"/>
      <point x="377" y="376"/>
      <point x="401" y="354"/>
      <point x="401" y="322" type="curve" smooth="yes"/>
      <point x="401" y="71" type="line" smooth="yes"/>
      <point x="401" y="56"/>
      <point x="386" y="46"/>
      <point x="365" y="46" type="curve" smooth="yes"/>
      <point x="346" y="46" type="line"/>
    </contour>
    <contour>
      <point x="409" y="596" type="curve" smooth="yes"/>
      <point x="437" y="596"/>
      <point x="457" y="615"/>
      <point x="457" y="641" type="curve" smooth="yes"/>
      <point x="457" y="667"/>
      <point x="437" y="686"/>
      <point x="409" y="686" type="curve" smooth="yes"/>
      <point x="381" y="686"/>
      <point x="361" y="667"/>
      <point x="361" y="641" type="curve" smooth="yes"/>
      <point x="361" y="615"/>
      <point x="381" y="596"/>
    </contour>
  </outline>
</glyph>
<glyph name="s.hist" format="2">
  <advance width="317"/>
  <anchor x="159" y="453" name="top"/>
  <anchor x="159" y="0" name="bottom"/>
  <outline>
    <contour>
      <point x="53" y="0" type="line"/>
      <point x="309" y="0" type="line"/>
      <point x="309" y="46" type="line"/>
      <point x="300" y="46"/>
      <point x="299" y="46"/>
      <point x="262" y="46" type="curve" smooth="yes"/>
      <point x="240" y="46"/>
      <point x="230" y="59"/>
      <point x="230" y="77" type="curve" smooth="yes"/>
      <point x="230" y="108"/>
      <point x="230" y="515"/>
      <point x="230" y="549" type="curve" smooth="yes"/>
      <point x="230" y="622"/>
      <point x="248" y="651"/>
      <point x="276" y="675" type="curve" smooth="yes"/>
      <point x="290" y="687"/>
      <point x="311" y="699"/>
      <point x="333" y="699" type="curve" smooth="yes"/>
      <point x="385" y="699"/>
      <point x="364" y="650"/>
      <point x="412" y="650" type="curve" smooth="yes"/>
      <point x="437" y="650"/>
      <point x="488" y="676"/>
      <point x="488" y="713" type="curve" smooth="yes"/>
      <point x="488" y="752"/>
      <point x="452" y="779"/>
      <point x="400" y="779" type="curve" smooth="yes"/>
      <point x="359" y="779"/>
      <point x="291" y="746"/>
      <point x="236" y="699" type="curve" smooth="yes"/>
      <point x="183" y="655"/>
      <point x="146" y="600"/>
      <point x="146" y="530" type="curve" smooth="yes"/>
      <point x="146" y="467"/>
      <point x="115" y="422"/>
      <point x="70" y="422" type="curve" smooth="yes"/>
      <point x="58" y="422" type="line"/>
      <point x="58" y="376" type="line"/>
      <point x="143" y="376" type="line"/>
      <point x="148" y="276"/>
      <point x="148" y="195"/>
      <point x="143" y="95" type="curve" smooth="yes"/>
      <point x="143" y="66"/>
      <point x="124" y="46"/>
      <point x="98" y="46" type="curve" smooth="yes"/>
      <point x="53" y="46" type="line"/>
    </contour>
  </outline>
</glyph>
<glyph name="s_i.hist" format="2">
  <advance width="571"/>
  <anchor x="143" y="453" name="top_1"/>
  <anchor x="428" y="453" name="top_2"/>
  <anchor x="143" y="0" name="bottom_1"/>
  <anchor x="428" y="0" name="bottom_2"/>
  <anchor x="285.5" y="0" name="caret_1"/>
  <outline>
    <contour>
      <point x="10" y="0" type="line"/>
      <point x="266" y="0" type="line"/>
      <point x="266" y="46" type="line"/>
      <point x="219" y="46" type="line" smooth="yes"/>
      <point x="197" y="46"/>
      <point x="181" y="59"/>
      <point x="181" y="77" type="curve" smooth="yes"/>
      <point x="181" y="549" type="line" smooth="yes"/>
      <point x="181" y="663"/>
      <point x="214" y="709"/>
      <point x="260" y="709" type="curve" smooth="yes"/>
      <point x="317" y="709"/>
      <point x="346" y="691"/>
      <point x="359" y="641" type="curve"/>
      <point x="455" y="641" type="line"/>
      <point x="446" y="722"/>
      <point x="406" y="780"/>
      <point x="330" y="780" type="curve" smooth="yes"/>
      <point x="197" y="780"/>
      <point x="103" y="687"/>
      <point x="103" y="530" type="curve" smooth="yes"/>
      <point x="103" y="467"/>
      <point x="72" y="422"/>
      <point x="27" y="422" type="curve" smooth="yes"/>
      <point x="15" y="422" type="line"/>
      <point x="15" y="376" type="line"/>
      <point x="100" y="376" type="line"/>
      <point x="100" y="95" type="line" smooth="yes"/>
      <point x="100" y="66"/>
      <point x="81" y="46"/>
      <point x="55" y="46" type="curve" smooth="yes"/>
      <point x="10" y="46" type="line"/>
    </contour>
    <contour>
      <point x="335" y="0" type="line"/>
      <point x="543" y="0" type="line"/>
      <point x="543" y="46" type="line"/>
      <point x="498" y="46" type="line" smooth="yes"/>
      <point x="482" y="46"/>
      <point x="471" y="58"/>
      <point x="471" y="75" type="curve" smooth="yes"/>
      <point x="471" y="370" type="line"/>
      <point x="474" y="453" type="line"/>
      <point x="465" y="469" type="line"/>
      <point x="428" y="446"/>
      <point x="374" y="423"/>
      <point x="333" y="414" type="curve"/>
      <point x="333" y="378" type="line"/>
      <point x="366" y="378"/>
      <point x="390" y="356"/>
      <point x="390" y="324" type="curve" smooth="yes"/>
      <point x="390" y="71" type="line" smooth="yes"/>
      <point x="390" y="56"/>
      <point x="375" y="46"/>
      <point x="354" y="46" type="curve" smooth="yes"/>
      <point x="335" y="46" type="line"/>
    </contour>
    <contour>
      <point x="407" y="596" type="curve" smooth="yes"/>
      <point x="435" y="596"/>
      <point x="455" y="615"/>
      <point x="455" y="641" type="curve" smooth="yes"/>
      <point x="455" y="667"/>
      <point x="435" y="686"/>
      <point x="407" y="686" type="curve" smooth="yes"/>
      <point x="379" y="686"/>
      <point x="359" y="667"/>
      <point x="359" y="641" type="curve" smooth="yes"/>
      <point x="359" y="615"/>
      <point x="379" y="596"/>
    </contour>
  </outline>
</glyph>
<glyph name="s_s.hist" format="2">
  <advance width="604"/>
  <anchor x="151" y="453" name="top_1"/>
  <anchor x="453" y="453" name="top_2"/>
  <anchor x="151" y="0" name="bottom_1"/>
  <anchor x="453" y="0" name="bottom_2"/>
  <anchor x="302" y="0" name="caret_1"/>
  <outline>
    <contour>
      <point x="10" y="0" type="line"/>
      <point x="266" y="0" type="line"/>
      <point x="266" y="46" type="line"/>
      <point x="219" y="46" type="line" smooth="yes"/>
      <point x="197" y="46"/>
      <point x="181" y="59"/>
      <point x="181" y="77" type="curve" smooth="yes"/>
      <point x="181" y="549" type="line" smooth="yes"/>
      <point x="181" y="663"/>
      <point x="214" y="709"/>
      <point x="260" y="709" type="curve" smooth="yes"/>
      <point x="354" y="709"/>
      <point x="417" y="664"/>
      <point x="420" y="577" type="curve"/>
      <point x="476" y="657" type="line"/>
      <point x="456" y="729"/>
      <point x="400" y="780"/>
      <point x="340" y="780" type="curve" smooth="yes"/>
      <point x="207" y="780"/>
      <point x="103" y="687"/>
      <point x="103" y="530" type="curve" smooth="yes"/>
      <point x="103" y="467"/>
      <point x="72" y="422"/>
      <point x="27" y="422" type="curve" smooth="yes"/>
      <point x="15" y="422" type="line"/>
      <point x="15" y="376" type="line"/>
      <point x="100" y="376" type="line"/>
      <point x="100" y="95" type="line" smooth="yes"/>
      <point x="100" y="66"/>
      <point x="81" y="46"/>
      <point x="55" y="46" type="curve" smooth="yes"/>
      <point x="10" y="46" type="line"/>
    </contour>
    <contour>
      <point x="297" y="0" type="line"/>
      <point x="553" y="0" type="line"/>
      <point x="553" y="46" type="line"/>
      <point x="506" y="46" type="line" smooth="yes"/>
      <point x="484" y="46"/>
      <point x="468" y="59"/>
      <point x="468" y="77" type="curve" smooth="yes"/>
      <point x="468" y="549" type="line" smooth="yes"/>
      <point x="468" y="622"/>
      <point x="492" y="651"/>
      <point x="520" y="675" type="curve" smooth="yes"/>
      <point x="534" y="687"/>
      <point x="555" y="699"/>
      <point x="577" y="699" type="curve" smooth="yes"/>
      <point x="629" y="699"/>
      <point x="608" y="650"/>
      <point x="656" y="650" type="curve" smooth="yes"/>
      <point x="681" y="650"/>
      <point x="732" y="676"/>
      <point x="732" y="713" type="curve" smooth="yes"/>
      <point x="732" y="752"/>
      <point x="696" y="779"/>
      <point x="644" y="779" type="curve" smooth="yes"/>
      <point x="603" y="779"/>
      <point x="535" y="746"/>
      <point x="480" y="699" type="curve" smooth="yes"/>
      <point x="427" y="655"/>
      <point x="390" y="600"/>
      <point x="390" y="530" type="curve" smooth="yes"/>
      <point x="390" y="467"/>
      <point x="359" y="422"/>
      <point x="314" y="422" type="curve" smooth="yes"/>
      <point x="302" y="422" type="line"/>
      <point x="302" y="376" type="line"/>
      <point x="387" y="376" type="line"/>
      <point x="387" y="95" type="line" smooth="yes"/>
      <point x="387" y="66"/>
      <point x="368" y="46"/>
      <point x="342" y="46" type="curve" smooth="yes"/>
      <point x="297" y="46" type="line"/>
    </contour>
  </outline>
</glyph>
<glyph name="s_t" format="2">
  <advance width="691"/>
  <anchor x="345.5" y="0" name="caret_1"/>
  <outline>
    <contour>
      <point x="534" y="-12" type="curve" smooth="yes"/>
      <point x="587" y="-12"/>
      <point x="647" y="26"/>
      <point x="677" y="81" type="curve"/>
      <point x="657" y="108" type="line"/>
      <point x="635" y="81"/>
      <point x="599" y="62"/>
      <point x="569" y="62" type="curve" smooth="yes"/>
      <point x="526" y="62"/>
      <point x="495" y="87"/>
      <point x="495" y="125" type="curve" smooth="yes"/>
      <point x="495" y="377" type="line"/>
      <point x="653" y="377" type="line"/>
      <point x="653" y="453" type="line"/>
      <point x="499" y="453" type="line"/>
      <point x="499" y="520" type="line"/>
      <point x="485" y="532" type="line"/>
      <point x="447" y="481"/>
      <point x="394" y="436"/>
      <point x="356" y="423" type="curve"/>
      <point x="356" y="377" type="line"/>
      <point x="414" y="377" type="line"/>
      <point x="414" y="82" type="line" smooth="yes"/>
      <point x="414" y="27"/>
      <point x="464" y="-12"/>
    </contour>
    <contour>
      <point x="161" y="-15" type="curve" smooth="yes"/>
      <point x="256" y="-15"/>
      <point x="324" y="42"/>
      <point x="324" y="122" type="curve" smooth="yes"/>
      <point x="324" y="252"/>
      <point x="119" y="301"/>
      <point x="119" y="380" type="curve" smooth="yes"/>
      <point x="119" y="404"/>
      <point x="146" y="420"/>
      <point x="183" y="420" type="curve" smooth="yes"/>
      <point x="215" y="420"/>
      <point x="235" y="406"/>
      <point x="235" y="384" type="curve" smooth="yes"/>
      <point x="235" y="378"/>
      <point x="233" y="374"/>
      <point x="233" y="369" type="curve" smooth="yes"/>
      <point x="233" y="363"/>
      <point x="259" y="360"/>
      <point x="296" y="360" type="curve" smooth="yes"/>
      <point x="305" y="360"/>
      <point x="312" y="370"/>
      <point x="312" y="383" type="curve" smooth="yes"/>
      <point x="312" y="433"/>
      <point x="266" y="469"/>
      <point x="202" y="469" type="curve" smooth="yes"/>
      <point x="108" y="469"/>
      <point x="42" y="419"/>
      <point x="42" y="349" type="curve" smooth="yes"/>
      <point x="42" y="206"/>
      <point x="241" y="165"/>
      <point x="241" y="102" type="curve" smooth="yes"/>
      <point x="241" y="62"/>
      <point x="213" y="33"/>
      <point x="175" y="33" type="curve" smooth="yes"/>
      <point x="140" y="33"/>
      <point x="115" y="55"/>
      <point x="115" y="87" type="curve" smooth="yes"/>
      <point x="115" y="94"/>
      <point x="117" y="98"/>
      <point x="117" y="107" type="curve" smooth="yes"/>
      <point x="117" y="114"/>
      <point x="92" y="119"/>
      <point x="55" y="119" type="curve" smooth="yes"/>
      <point x="47" y="119"/>
      <point x="41" y="108"/>
      <point x="41" y="93" type="curve" smooth="yes"/>
      <point x="41" y="30"/>
      <point x="91" y="-15"/>
    </contour>
    <contour>
      <point x="356" y="423" type="curve"/>
      <point x="499" y="453" type="line"/>
      <point x="501" y="562" type="line" smooth="yes"/>
      <point x="501" y="644"/>
      <point x="431" y="700"/>
      <point x="332" y="700" type="curve" smooth="yes"/>
      <point x="238" y="700"/>
      <point x="173" y="644"/>
      <point x="173" y="562" type="curve" smooth="yes"/>
      <point x="173" y="526"/>
      <point x="186" y="480"/>
      <point x="202" y="449" type="curve"/>
      <point x="286" y="442" type="line"/>
      <point x="255" y="464"/>
      <point x="233" y="513"/>
      <point x="233" y="561" type="curve" smooth="yes"/>
      <point x="233" y="608"/>
      <point x="274" y="641"/>
      <point x="332" y="641" type="curve" smooth="yes"/>
      <point x="395" y="641"/>
      <point x="441" y="608"/>
      <point x="442" y="562" type="curve" smooth="yes"/>
      <point x="442" y="498"/>
      <point x="406" y="440"/>
    </contour>
  </outline>
</glyph>
<glyph name="s_t.hist" format="2">
  <advance width="664"/>
  <anchor x="166" y="453" name="top_1"/>
  <anchor x="498" y="453" name="top_2"/>
  <anchor x="166" y="0" name="bottom_1"/>
  <anchor x="498" y="0" name="bottom_2"/>
  <anchor x="332" y="0" name="caret_1"/>
  <outline>
    <contour>
      <point x="15" y="0" type="line"/>
      <point x="271" y="0" type="line"/>
      <point x="271" y="46" type="line"/>
      <point x="224" y="46" type="line" smooth="yes"/>
      <point x="202" y="46"/>
      <point x="186" y="59"/>
      <point x="186" y="77" type="curve" smooth="yes"/>
      <point x="186" y="549" type="line" smooth="yes"/>
      <point x="186" y="663"/>
      <point x="219" y="709"/>
      <point x="265" y="709" type="curve" smooth="yes"/>
      <point x="329" y="709"/>
      <point x="386" y="670"/>
      <point x="386" y="592" type="curve" smooth="yes"/>
      <point x="386" y="377" type="line"/>
      <point x="471" y="520" type="line"/>
      <point x="471" y="611" type="line" smooth="yes"/>
      <point x="471" y="710"/>
      <point x="408" y="780"/>
      <point x="345" y="780" type="curve" smooth="yes"/>
      <point x="212" y="780"/>
      <point x="108" y="687"/>
      <point x="108" y="530" type="curve" smooth="yes"/>
      <point x="108" y="467"/>
      <point x="77" y="422"/>
      <point x="32" y="422" type="curve" smooth="yes"/>
      <point x="20" y="422" type="line"/>
      <point x="20" y="376" type="line"/>
      <point x="105" y="376" type="line"/>
      <point x="105" y="95" type="line" smooth="yes"/>
      <point x="105" y="66"/>
      <point x="86" y="46"/>
      <point x="60" y="46" type="curve" smooth="yes"/>
      <point x="15" y="46" type="line"/>
    </contour>
    <contour>
      <point x="506" y="-12" type="curve" smooth="yes"/>
      <point x="569" y="-12"/>
      <point x="628" y="24"/>
      <point x="649" y="74" type="curve"/>
      <point x="629" y="108" type="line"/>
      <point x="607" y="81"/>
      <point x="571" y="62"/>
      <point x="541" y="62" type="curve" smooth="yes"/>
      <point x="498" y="62"/>
      <point x="467" y="78"/>
      <point x="467" y="125" type="curve" smooth="yes"/>
      <point x="467" y="377" type="line"/>
      <point x="625" y="377" type="line"/>
      <point x="625" y="453" type="line"/>
      <point x="471" y="453" type="line"/>
      <point x="471" y="520" type="line"/>
      <point x="457" y="532" type="line"/>
      <point x="419" y="481"/>
      <point x="366" y="436"/>
      <point x="328" y="423" type="curve"/>
      <point x="328" y="377" type="line"/>
      <point x="386" y="377" type="line"/>
      <point x="386" y="82" type="line" smooth="yes"/>
      <point x="386" y="27"/>
      <point x="436" y="-12"/>
    </contour>
  </outline>
</glyph>
